<svg width="48" height="48" viewBox="0 0 48 48" fill="none" xmlns="http://www.w3.org/2000/svg">
<path d="M10.5859 21.8865H10.7127C11.5496 21.8865 12.2303 21.2057 12.2303 20.3689V19.3008C12.2303 18.9124 11.9156 18.5977 11.5272 18.5977C11.1388 18.5977 10.8241 18.9124 10.8241 19.3008V20.3689C10.8241 20.4303 10.7741 20.4803 10.7127 20.4803H10.5859C10.1975 20.4803 9.88281 20.795 9.88281 21.1834C9.88281 21.5718 10.1975 21.8865 10.5859 21.8865Z" fill="#0B1B7E"/>
<path d="M37.4139 18.5977C37.0255 18.5977 36.7108 18.9124 36.7108 19.3008V20.3689C36.7108 20.4303 36.6608 20.4803 36.5994 20.4803H36.4727C36.0842 20.4803 35.7695 20.795 35.7695 21.1834C35.7695 21.5718 36.0842 21.8865 36.4727 21.8865H36.5994C37.4363 21.8865 38.117 21.2057 38.117 20.3689V19.3008C38.117 18.9124 37.8023 18.5977 37.4139 18.5977Z" fill="#0B1B7E"/>
<path d="M47.2969 34.3215C47.6853 34.3215 48 34.0068 48 33.6184V32.6346C48 30.5737 46.6035 28.785 44.604 28.285L41.8142 27.5876C41.7823 27.4354 41.7076 27.2911 41.5917 27.1749L40.6742 26.2575C40.6129 26.1964 40.5437 26.1467 40.4696 26.1087V25.3932C41.5552 24.5352 42.3251 23.2901 42.5633 21.8607C44.0482 21.5848 45.176 20.2797 45.176 18.7162C45.176 17.6283 44.291 16.7431 43.203 16.7431H42.9193L42.9978 15.5138C43.1057 13.823 42.5267 12.2113 41.3675 10.9759C40.6823 10.2457 39.8532 9.70931 38.9399 9.39281V0.803063C38.9399 0.360188 38.5796 0 38.1368 0H9.86297C9.42009 0 9.05991 0.360281 9.05991 0.803063V6.47128H8.14153C7.82934 6.47128 7.55175 6.64613 7.41694 6.92775C7.28222 7.20928 7.32019 7.53516 7.51584 7.77797L8.87409 9.46575C8.34853 9.66844 7.85278 9.94275 7.40756 10.2797C7.28522 10.3723 7.19081 10.4888 7.12613 10.618C6.96881 10.6797 6.82406 10.7768 6.70087 10.9041C5.51259 12.13 4.89337 13.8102 5.00212 15.5137L5.08059 16.7431H4.79691C3.70903 16.7431 2.82394 17.6282 2.82394 18.7162C2.82394 20.2797 3.95175 21.5848 5.43656 21.8607C5.67488 23.29 6.44484 24.5352 7.53037 25.3931V26.1086C7.45612 26.1467 7.38675 26.1966 7.32525 26.258L6.40763 27.1755C6.29203 27.2914 6.21731 27.4354 6.18553 27.5875L3.39591 28.2849C1.3965 28.785 0 30.5736 0 32.6346V40.3229C0 40.7556 0.352031 41.1076 0.784688 41.1076H9.05991V47.1968C9.05991 47.6396 9.42019 47.9998 9.86297 47.9998H38.1369C38.5798 47.9998 38.94 47.6395 38.94 47.1968V41.5285H39.8584C40.1572 41.5285 40.4243 41.3682 40.5648 41.1076H47.2152C47.6479 41.1076 47.9999 40.7556 47.9999 40.3229V36.8998C47.9999 36.5114 47.6852 36.1967 47.2968 36.1967C46.9084 36.1967 46.5937 36.5114 46.5937 36.8998V39.7013H45.4114V35.3308C45.4114 34.9424 45.0967 34.6277 44.7083 34.6277C44.3198 34.6277 44.0051 34.9424 44.0051 35.3308V39.7013H40.0651L39.5079 39.0089L42.5154 36.2396C42.6767 36.0917 42.7718 35.8813 42.7764 35.6626C42.7811 35.4438 42.6951 35.2295 42.5403 35.0747L42.0123 34.5468L43.636 33.7349C44.0315 33.5373 44.1944 33.0536 43.9993 32.6571L42.2761 29.1528L44.2627 29.6495C45.6352 29.9926 46.5936 31.2202 46.5936 32.6347V33.6185C46.5938 34.0068 46.9085 34.3215 47.2969 34.3215ZM36.4068 36.5039L36.0608 35.4359L36.49 32.6657H37.3953L37.8245 35.4359L37.4785 36.5038C37.1753 36.2313 36.7116 36.2301 36.4068 36.5039ZM33.82 39.7013H29.8801V35.3308C29.8801 34.9424 29.5654 34.6277 29.177 34.6277C28.7886 34.6277 28.4738 34.9424 28.4738 35.3308V39.7013H27.2916V32.6346C27.2916 31.22 28.2501 29.9924 29.6224 29.6494L31.609 29.1527L29.8858 32.6569C29.6906 33.0535 29.8536 33.5372 30.249 33.7348L31.8728 34.5467L31.3447 35.0746C31.1901 35.2294 31.104 35.4438 31.1086 35.6625C31.1133 35.8812 31.2083 36.0916 31.3688 36.2388L34.3771 39.0087L33.82 39.7013ZM36.9427 29.791L37.7211 30.5694L37.4911 31.2593H36.3942L36.1643 30.5694L36.9427 29.791ZM40.0189 27.5909L40.259 27.831L38.944 29.8036L38.0464 28.906L40.0189 27.5909ZM34.7992 31.5407C34.8672 31.545 34.9339 31.5412 35.0016 31.5286L35.1665 32.0233L35.0982 32.4638L34.7992 31.5407ZM34.9414 29.8036L33.6264 27.831L33.8665 27.5909L35.839 28.9059L34.9414 29.8036ZM35.2609 37.9109L32.7809 35.6274L33.4556 34.9528C33.6383 34.7697 33.7226 34.508 33.6809 34.2527C33.6394 33.9974 33.4763 33.7762 33.2453 33.6608L31.4104 32.7434L32.7971 29.9234L34.6666 35.6951C34.6694 35.7045 34.6724 35.7138 34.6757 35.7231L35.3489 37.8016L35.2609 37.9109ZM38.7188 32.0233L38.8838 31.5286C38.9537 31.5415 39.0207 31.5449 39.0862 31.5407L38.7872 32.4638L38.7188 32.0233ZM39.0843 26.5238L36.9426 27.9517L34.8009 26.5238C34.8137 26.4202 34.8206 26.3155 34.8217 26.2103C36.145 26.7441 37.6709 26.7719 39.0635 26.2103C39.0646 26.3155 39.0715 26.4202 39.0843 26.5238ZM36.9427 25.2148C34.6845 25.2148 32.8029 23.4495 32.6591 21.1958C32.6548 21.1281 32.4974 18.6606 32.4931 18.5933L34.5647 15.8313L34.7465 15.9222C36.1215 16.6098 37.7635 16.61 39.1389 15.9222L39.2633 15.8601L41.3453 19.3301L41.2263 21.1958C41.0825 23.4495 39.2009 25.2148 36.9427 25.2148ZM31.1968 20.3614C30.5612 20.0857 30.1155 19.4521 30.1155 18.7163C30.1155 18.4037 30.3698 18.1494 30.6823 18.1494H31.0557C31.0908 18.6992 31.1595 19.7774 31.1968 20.3614ZM43.2031 18.1494C43.5156 18.1494 43.7698 18.4037 43.7698 18.7163C43.7698 19.4521 43.3241 20.0857 42.6885 20.3614C42.7384 19.5795 42.7803 18.9227 42.8297 18.1494H43.2031ZM40.3419 11.938C41.2325 12.8873 41.6773 14.1253 41.5944 15.4243L41.5028 16.8596L40.1841 14.6618C39.9672 14.3008 39.5034 14.1679 39.1293 14.3549L38.5099 14.6647C37.5285 15.1554 36.3565 15.1553 35.3753 14.6647L34.7473 14.3506C34.3972 14.1758 33.973 14.2761 33.7388 14.5887L32.3551 16.4335L32.2906 15.4244C32.2077 14.1255 32.6526 12.8873 33.5431 11.9381C35.3868 9.97322 38.4972 9.972 40.3419 11.938ZM7.51875 12.0935L7.93003 12.7105C8.14612 13.0346 8.58291 13.1204 8.90503 12.9055C9.22809 12.6902 9.31547 12.2536 9.10003 11.9305L8.59247 11.1691C8.97038 10.9324 9.37903 10.7532 9.81375 10.6336L10.4316 11.4012C10.753 11.801 11.3618 11.8003 11.6829 11.4012L12.3009 10.6333C14.4078 11.2118 15.8508 13.2024 15.7091 15.4243L15.6042 17.0689L14.9127 15.9165C14.7328 15.6168 14.4038 15.4305 14.0543 15.4305H12.1616C10.8574 15.4305 9.55144 15.1222 8.38491 14.5388C8.28722 14.49 8.17959 14.4646 8.07047 14.4646H8.06034C7.67869 14.4646 7.293 14.7031 7.12256 15.0443L6.46519 16.3588L6.40547 15.4241C6.32803 14.2107 6.73144 13.0126 7.51875 12.0935ZM16.9443 18.1494H17.3177C17.6303 18.1494 17.8845 18.4037 17.8845 18.7163C17.8845 19.4521 17.4388 20.0857 16.8032 20.3614C16.8788 19.175 16.843 19.7361 16.9443 18.1494ZM4.23009 18.7163C4.23009 18.4037 4.48434 18.1494 4.79681 18.1494H5.17031C5.22994 19.0839 5.25234 19.4354 5.3115 20.3614C4.67578 20.0857 4.23009 19.4521 4.23009 18.7163ZM6.77372 21.1958L6.64303 19.1473L8.21184 16.0099C9.45263 16.5519 10.808 16.8367 12.1616 16.8367H13.8249L15.4465 19.5392C15.314 21.6169 15.3465 21.1071 15.3408 21.1958C15.197 23.4494 13.3154 25.2147 11.0573 25.2147C8.79909 25.2147 6.91753 23.4495 6.77372 21.1958ZM18.8228 34.6277C18.4344 34.6277 18.1197 34.9424 18.1197 35.3308V39.7013H13.3341L13.6986 39.2377C13.8324 39.0665 13.8901 38.845 13.8568 38.6304L12.8333 32.0232L12.9982 31.5285C13.3155 31.5874 13.6463 31.4567 13.8335 31.176L15.355 28.8937L18.3775 29.6493C19.7498 29.9924 20.7083 31.22 20.7083 32.6345V39.7013H19.526V35.3307C19.526 34.9424 19.2112 34.6277 18.8228 34.6277ZM7.74094 27.831L7.98113 27.5909L9.95362 28.9059L9.05597 29.8035L7.74094 27.831ZM11.0573 29.791L11.8357 30.5694L11.6057 31.2593H10.5088L10.2788 30.5693L11.0573 29.791ZM14.1335 27.5909L14.3736 27.831L13.0586 29.8036L12.1611 28.906L14.1335 27.5909ZM10.5693 39.7013L9.68841 38.5809L10.6046 32.6656H11.5099L12.426 38.5809L11.5451 39.7013H10.5693ZM13.1782 26.2104C13.1792 26.3156 13.1861 26.4202 13.1989 26.5238L11.0573 27.9517L8.91562 26.5238C8.92847 26.4202 8.93541 26.3155 8.93644 26.2103C10.2566 26.7428 11.7827 26.7731 13.1782 26.2104ZM1.40625 32.6346C1.40625 31.22 2.36475 29.9924 3.73697 29.6494L6.75937 28.8938L8.28131 31.1768C8.46666 31.4541 8.796 31.588 9.11625 31.5286L9.28116 32.0233L8.25769 38.6303C8.22441 38.845 8.28206 39.0664 8.41716 39.2393L8.78044 39.7013H3.99469V35.3308C3.99469 34.9424 3.67997 34.6277 3.29156 34.6277C2.90316 34.6277 2.58844 34.9424 2.58844 35.3308V39.7013H1.40625V32.6346ZM38.337 40.1223C37.8941 40.1223 37.5338 40.4827 37.5338 40.9254V46.5937H10.4662V41.1076H11.6484V44.6082C11.6484 45.0511 12.0087 45.4114 12.4515 45.4114H13.9066C14.295 45.4114 14.6097 45.0967 14.6097 44.7083C14.6097 44.3198 14.295 44.0051 13.9066 44.0051H13.0546V41.1076H21.3298C21.7625 41.1076 22.1145 40.7556 22.1145 40.3229V32.6346C22.1145 30.5737 20.718 28.785 18.7186 28.285L15.9287 27.5876C15.8968 27.4354 15.8221 27.2911 15.7062 27.1749L14.7893 26.2581C14.7279 26.1967 14.6585 26.1468 14.5842 26.1087V25.3932C15.6698 24.5352 16.4397 23.2901 16.678 21.8608C18.1628 21.5849 19.2907 20.2798 19.2907 18.7163C19.2907 17.6284 18.4056 16.7432 17.3176 16.7432H17.0339L17.1124 15.5138C17.2839 12.8261 15.6728 10.398 13.242 9.46388L14.5988 7.77778C14.7944 7.53459 14.8321 7.20881 14.6973 6.92747C14.5625 6.64603 14.285 6.47128 13.973 6.47128H13.0546V3.99469H17.3158C17.7042 3.99469 18.0189 3.67997 18.0189 3.29156C18.0189 2.90316 17.7042 2.58844 17.3158 2.58844H12.4514C12.0085 2.58844 11.6483 2.94881 11.6483 3.39159V7.07428C11.6483 7.51716 12.0086 7.87744 12.4514 7.87744H12.7134C12.3484 8.33109 11.5794 9.28669 11.0572 9.93563C10.7629 9.57 9.8625 8.45109 9.40088 7.87744H9.66281C10.1057 7.87744 10.466 7.51706 10.466 7.07428V1.40616H37.5337V9.08784C37.1426 9.05063 36.7434 9.05053 36.3516 9.08784V3.39159C36.3516 2.94872 35.9912 2.58844 35.5484 2.58844H20.5973C20.2089 2.58844 19.8942 2.90316 19.8942 3.29156C19.8942 3.67997 20.2089 3.99469 20.5973 3.99469H34.9453V9.39281C34.032 9.70941 33.2029 10.2458 32.5177 10.9759C31.3584 12.2115 30.7795 13.823 30.8874 15.5137L30.9659 16.7431H30.6822C29.5943 16.7431 28.7092 17.6282 28.7092 18.7162C28.7092 20.2797 29.837 21.5848 31.3218 21.8607C31.5601 23.29 32.3301 24.5352 33.4156 25.3931V26.1088C33.3413 26.1469 33.272 26.1967 33.2105 26.258L32.293 27.1755C32.1774 27.2914 32.1028 27.4354 32.071 27.5875L29.2813 28.2849C27.2818 28.7848 25.8853 30.5734 25.8853 32.6345V40.3228C25.8853 40.7555 26.2373 41.1075 26.67 41.1075H33.3205C33.461 41.3682 33.7282 41.5284 34.0269 41.5284H34.9453V44.005H17.188C16.7996 44.005 16.4849 44.3198 16.4849 44.7082C16.4849 45.0966 16.7996 45.4113 17.188 45.4113H35.5484C35.9913 45.4113 36.3516 45.0509 36.3516 44.6081V40.9255C36.3516 40.4827 35.9912 40.1224 35.5484 40.1224H35.2864C36.927 38.0836 35.2278 40.1951 36.9427 38.0642L37.1967 38.3799C37.2006 38.3848 37.2044 38.3897 37.2084 38.3945L38.5989 40.1224H38.337V40.1223ZM40.6403 33.6606C40.4089 33.7761 40.2459 33.9974 40.2044 34.2526C40.1628 34.5079 40.247 34.7696 40.4302 34.9532L41.1044 35.6273L38.6244 37.9108L38.5364 37.8014L39.2096 35.7229C39.2128 35.7136 39.2158 35.7043 39.2187 35.6949L41.0882 29.9232L42.4749 32.7432L40.6403 33.6606Z" fill="#0B1B7E"/>
</svg>
