<svg width="88" height="64" viewBox="0 0 88 64" fill="none" xmlns="http://www.w3.org/2000/svg">
<path d="M58.8706 2.71861C58.4203 3.66719 57.988 4.54418 57.8799 4.66946C57.7899 4.79474 56.8893 5.02741 55.8986 5.18849C54.9079 5.34957 53.9172 5.51065 53.7191 5.54645C53.3948 5.61804 53.5569 5.85071 54.9619 7.21094L56.565 8.80383L56.2228 10.9695C56.0247 12.1686 55.9166 13.153 55.9526 13.153C55.9886 13.153 56.8893 12.7055 57.952 12.1507L59.8973 11.1484L61.9328 12.1686L63.9502 13.1709L63.8421 12.3118C63.77 11.8464 63.5899 10.8621 63.4458 10.1283L63.1756 8.80383L64.7427 7.22883C65.6073 6.35185 66.2918 5.61804 66.2377 5.58224C66.1657 5.51065 64.2924 5.18849 62.7793 4.99162L61.9147 4.88423L60.9241 2.93338C60.3837 1.85952 59.8793 0.982528 59.8073 0.982528C59.7352 1.00043 59.3209 1.77003 58.8706 2.71861Z" fill="#1E2F97"/>
<path d="M35.0227 4.36528C34.1401 6.10136 34.2842 6.01187 31.9966 6.36982C31.2221 6.47721 30.5917 6.62039 30.5917 6.65618C30.5917 6.69198 31.1681 7.26471 31.8886 7.94482L33.1675 9.16187L32.8973 10.9337C32.7352 11.9002 32.6451 12.7414 32.6811 12.7593C32.6991 12.7951 33.4557 12.455 34.3383 11.9897L35.9594 11.1664L37.5265 11.9897C38.3911 12.4372 39.1476 12.7593 39.2017 12.7235C39.2377 12.6698 39.1296 11.8644 38.9495 10.9158L38.6253 9.19766L39.9402 7.89113L41.2551 6.5667L40.7507 6.45931C40.4625 6.40562 39.67 6.28033 38.9855 6.17295C38.301 6.06556 37.6706 5.94028 37.5805 5.86868C37.4905 5.81499 37.0942 5.09908 36.6979 4.27579C36.3016 3.45249 35.9414 2.77238 35.9054 2.77238C35.8513 2.77238 35.455 3.48829 35.0227 4.36528Z" fill="#1E2F97"/>
<path d="M73.0107 4.33036C72.6504 4.90309 71.9839 6.01275 71.5336 6.80025C70.1467 9.18064 62.7075 21.6912 62.2032 22.4787C62.1131 22.6397 61.8789 23.0514 61.6808 23.3735C61.5007 23.7136 60.8522 24.8233 60.2218 25.8613C58.3485 28.9934 54.4398 35.5619 53.9895 36.3673C53.7553 36.7968 53.4851 37.1369 53.4131 37.1369C53.341 37.1369 53.1249 36.7968 52.9267 36.3673C52.5304 35.4545 50.0627 29.8883 49.2161 27.9554C48.8739 27.2037 48.3335 25.9508 47.9913 25.1812C47.6491 24.4295 47.0546 23.0335 46.6404 22.1028C46.2261 21.1721 45.6677 19.9014 45.3975 19.2929L44.9112 18.1832L37.5981 18.1653H30.303L29.2583 21.1542C28.6819 22.8187 27.8353 25.2528 27.349 26.5772C26.5384 28.886 22.2334 41.2892 20.5583 46.1752C20.126 47.446 19.4955 49.2716 19.1533 50.2022C18.8291 51.1329 18.5048 52.0815 18.4328 52.3142L18.3247 52.7079L24.557 52.6721L30.8074 52.6184L33.221 46.5332C37.5621 35.6335 38.2465 33.9869 38.4086 33.9332C38.5527 33.8974 40.5341 38.6582 44.2087 47.8755C44.659 49.0031 45.2894 50.5602 45.5956 51.3119L46.172 52.69L52.2963 52.7079H58.4385L58.9969 51.7593C59.3031 51.2582 60.8702 48.6093 62.4733 45.9068C65.3734 41.0207 67.805 36.9579 68.1473 36.4031C68.2373 36.242 68.4895 35.8304 68.6696 35.5082C68.8498 35.1681 70.3448 32.6446 71.9839 29.8883C73.6231 27.1321 75.4063 24.1252 75.9467 23.2125C76.4871 22.2997 76.9734 21.5838 77.0094 21.6375C77.0635 21.6733 76.9554 22.8724 76.8113 24.2863C76.5231 26.9352 76.1088 30.819 75.3523 38.0318C75.1181 40.3406 74.6678 44.5287 74.3616 47.3207C74.0734 50.1306 73.8212 52.511 73.8212 52.6542C73.8212 52.8332 74.902 52.8869 79.4771 52.8869H85.1511L85.2411 51.9562C85.2952 51.4372 85.3852 49.8801 85.4393 48.502C85.5834 44.7255 86.2138 30.3895 86.43 26.2193C86.52 24.1968 86.6821 20.6173 86.7902 18.2548C87.1685 9.39542 87.3306 5.69059 87.4207 4.50934L87.5107 3.31019H80.5759H73.6411L73.0107 4.33036Z" fill="#1E2F97"/>
<path d="M15.3712 12.2932C14.9749 13.1165 14.6507 13.7966 14.6327 13.8324C14.6147 13.8503 13.8582 13.9934 12.9575 14.1187C12.0389 14.2619 11.2644 14.4051 11.2283 14.4409C11.1743 14.4767 11.6967 15.0494 12.3631 15.7116L13.588 16.9287L13.3358 18.5395C13.1917 19.4344 13.1377 20.204 13.1737 20.2577C13.2277 20.3113 13.8762 20.025 14.6147 19.6133C15.3532 19.2017 16.0557 18.8795 16.1998 18.8795C16.3259 18.8795 17.0824 19.2017 17.8569 19.6133C18.6315 20.0071 19.2979 20.3113 19.352 20.2756C19.388 20.2219 19.2799 19.4523 19.1178 18.5395L18.8296 16.8929L20.0545 15.6579C21.3874 14.3156 21.3874 14.3335 19.8743 14.1366C17.6948 13.8682 17.8569 13.9577 17.0284 12.329C16.6141 11.5057 16.2358 10.8256 16.1818 10.8256C16.1277 10.8256 15.7495 11.4878 15.3712 12.2932Z" fill="#1E2F97"/>
<path d="M3.84287 25.5929C3.35653 26.613 3.01429 27.0963 2.81615 27.1142C2.65404 27.1142 1.8795 27.2037 1.14099 27.311L-0.245972 27.5258L0.978878 28.7429L2.18572 29.9599L1.91553 31.5707C1.77143 32.4656 1.68137 33.1994 1.7354 33.1994C1.77143 33.1994 2.4559 32.8593 3.24845 32.4477L4.70747 31.696L6.16648 32.4477C6.95903 32.8414 7.6435 33.1457 7.67953 33.1278C7.71555 33.092 7.60748 32.3582 7.44537 31.4991L7.13915 29.9241L8.34599 28.725L9.55283 27.5079L9.04848 27.4005C8.76028 27.3468 8.12984 27.2573 7.62549 27.2037C6.22052 27.0247 6.2025 27.0068 5.46399 25.5034C5.08573 24.7159 4.70747 24.0716 4.65343 24.0716C4.59939 24.0716 4.22113 24.7517 3.84287 25.5929Z" fill="#1E2F97"/>
<path d="M3.93288 42.1473C3.28443 43.4896 3.26642 43.4896 1.71735 43.6865C1.15896 43.7402 0.654609 43.8655 0.600571 43.9371C0.564546 44.0087 0.978834 44.4919 1.51921 44.993C2.40182 45.7984 2.5099 45.9953 2.43785 46.4249C2.38381 46.7112 2.27573 47.3376 2.20368 47.8388L2.09561 48.7337L3.3745 48.0893L4.65338 47.4271L5.91426 48.0715C6.61675 48.4294 7.17513 48.6442 7.17513 48.5547C7.17513 48.4652 7.08507 47.8209 6.95898 47.1408L6.76085 45.8879L7.67948 44.9572C8.20185 44.4382 8.61613 43.955 8.61613 43.9013C8.61613 43.8297 8.14781 43.7223 7.58942 43.6507C6.04035 43.4717 5.87823 43.3643 5.22978 42.0757C4.88755 41.4314 4.59935 40.8945 4.58133 40.8945C4.56332 40.8945 4.27512 41.4493 3.93288 42.1473Z" fill="#1E2F97"/>
<path d="M7.33791 59.1156C7.15779 59.1514 6.85158 59.7957 6.4553 61.0843C6.13108 62.1403 5.82486 63.1068 5.77083 63.2141C5.71679 63.3752 5.89691 63.4468 6.3112 63.4468C6.79754 63.4468 6.97766 63.3573 7.12176 63.0352C7.42798 62.3908 8.79693 62.4445 8.79693 63.0889C8.79693 63.3752 8.92301 63.4468 9.42736 63.4468C9.7696 63.4468 10.0578 63.3931 10.0578 63.3215C10.0578 63.2499 9.75159 62.2835 9.39134 61.1917C8.7609 59.2587 8.70686 59.1871 8.1845 59.1156C7.87829 59.0798 7.50003 59.0798 7.33791 59.1156ZM8.13046 60.5295C8.1845 60.8158 8.29258 61.1738 8.34661 61.3349C8.45469 61.6033 8.38264 61.657 7.98636 61.657C7.53605 61.657 7.50003 61.6212 7.6081 61.1022C7.66214 60.7979 7.71618 60.4221 7.71618 60.2968C7.71618 59.8494 8.02239 60.0283 8.13046 60.5295Z" fill="#1E2F97"/>
<path d="M16.4509 59.2408C15.8025 59.5809 15.6944 59.742 15.4422 60.6727C15.0099 62.2477 15.9106 63.4468 17.5137 63.4468C18.9727 63.4289 19.6031 62.7309 19.6031 61.138C19.6031 60.4042 19.5131 60.1357 19.1168 59.6883C18.4864 59.0082 17.2795 58.8113 16.4509 59.2408ZM18.0541 60.1536C18.4143 60.2968 18.4683 61.9971 18.1261 62.3371C17.8739 62.5877 17.2795 62.6056 16.9373 62.3908C16.595 62.194 16.4509 60.9053 16.7031 60.4221C16.9193 60.0462 17.4777 59.9389 18.0541 60.1536Z" fill="#1E2F97"/>
<path d="M26.0883 59.1136C25.692 59.1673 25.5659 59.3642 25.0435 60.9929C24.7373 61.9951 24.4671 62.9258 24.4671 63.0511C24.4671 63.4807 24.1069 63.248 23.5665 62.4605L23.0081 61.6551L23.4044 61.1361C23.7466 60.6886 23.7647 60.5454 23.5845 59.9906C23.3324 59.2747 23.0442 59.1494 21.5491 59.1494H20.5044V61.2971V63.4449H21.0448C21.5671 63.4449 21.5851 63.4091 21.5851 62.6395C21.5851 62.192 21.6752 61.8341 21.7653 61.8341C21.8733 61.8341 22.1796 62.192 22.4497 62.6395L22.9361 63.4449H24.215C25.3678 63.4449 25.5119 63.4091 25.674 63.0332C25.8361 62.7111 26.0342 62.6037 26.5206 62.5858C27.0609 62.5679 27.205 62.6395 27.3491 62.9974C27.4752 63.3375 27.6554 63.4449 28.0696 63.4449C28.7181 63.4449 28.7361 63.6417 27.8535 60.9034C27.2411 59.0778 27.151 58.9883 26.0883 59.1136ZM22.4497 60.4738C22.4137 60.7065 22.2336 60.8676 21.9994 60.9034C21.6752 60.9571 21.5851 60.8855 21.5851 60.5275C21.5851 59.9906 21.6932 59.8832 22.1435 59.9906C22.3957 60.0622 22.4858 60.2233 22.4497 60.4738ZM26.7007 60.5275C26.7727 60.8139 26.8628 61.1718 26.9168 61.3329C26.9889 61.5835 26.8988 61.6551 26.5206 61.6551C26.0883 61.6551 26.0522 61.6193 26.1603 61.1003C26.2144 60.796 26.2684 60.4201 26.2684 60.2949C26.2684 59.8474 26.5926 60.0264 26.7007 60.5275Z" fill="#1E2F97"/>
<path d="M35.31 59.1865C34.8057 59.437 34.6255 60.0635 34.9137 60.5825C35.0939 60.9046 35.0578 61.0299 34.7516 61.37C34.3013 61.8353 34.2653 62.4975 34.6435 63.0345C34.8957 63.3924 35.0758 63.4103 36.9131 63.4103H38.8945L38.5162 62.9987C38.156 62.6049 38.138 62.5512 38.4082 62.0501C38.5703 61.7458 38.6964 61.4058 38.6964 61.2984C38.6964 60.9941 37.7597 61.1015 37.5255 61.4237C37.3274 61.6921 37.2554 61.6921 37.0032 61.4953C36.733 61.2626 36.733 61.2268 37.0752 60.9046C37.4715 60.5288 37.5616 59.6518 37.2193 59.3654C36.8411 59.0791 35.7603 58.9717 35.31 59.1865ZM36.3187 60.3498C36.2106 60.4751 36.0665 60.5288 35.9765 60.4751C35.7423 60.3319 35.7783 59.9024 36.0485 59.8129C36.3547 59.7055 36.5529 60.0814 36.3187 60.3498ZM36.2647 62.1933C36.5889 62.5512 36.5709 62.5512 36.1206 62.5512C35.8504 62.5512 35.6342 62.5154 35.6342 62.4796C35.6342 62.4439 35.5802 62.2828 35.5262 62.1217C35.364 61.71 35.8684 61.7637 36.2647 62.1933Z" fill="#1E2F97"/>
<path d="M57.3576 61.0306C56.9793 62.1045 56.6371 63.1068 56.583 63.2141C56.529 63.3752 56.7091 63.4468 57.2315 63.4468C57.8439 63.4468 57.97 63.3931 57.97 63.1068C57.97 62.4087 59.3209 62.3193 59.6272 62.9994C59.7893 63.3573 59.9694 63.4468 60.4557 63.4468C60.9601 63.4468 61.0501 63.3931 60.9421 63.1246C60.87 62.9636 60.5458 62.0329 60.2216 61.0664C59.8973 60.0999 59.5911 59.2587 59.5371 59.2229C59.5011 59.1693 59.1228 59.1156 58.7445 59.0977L58.024 59.0619L57.3576 61.0306ZM59.1408 60.9769C59.2669 61.6212 59.2489 61.657 58.7986 61.657C58.2582 61.657 58.2582 61.6391 58.5284 60.6906C58.7445 59.9031 58.9607 60.0104 59.1408 60.9769Z" fill="#1E2F97"/>
<path d="M62.4561 59.384C61.4114 60.082 61.1052 61.2633 61.6635 62.4624C62.0238 63.1783 62.5822 63.4468 63.735 63.4468C65.1219 63.4468 65.176 63.3931 65.176 62.0866V60.9411H64.2573C63.4108 60.9411 63.3567 60.9769 63.4108 61.3349C63.4468 61.6033 63.5729 61.7286 63.789 61.7286C64.0052 61.7107 64.0952 61.8181 64.0952 62.1224C64.0952 62.4803 64.0052 62.5519 63.5909 62.5519C62.9064 62.5519 62.6542 62.2477 62.6542 61.4244C62.6542 60.3147 62.8884 60.0462 63.8791 60.0462C64.5275 60.0462 64.7797 59.9567 64.9598 59.6883C65.158 59.3661 65.1219 59.3124 64.7257 59.1514C63.9511 58.865 63.1045 58.9545 62.4561 59.384Z" fill="#1E2F97"/>
<path d="M0.150269 61.3153V63.4631L0.636606 63.4094C1.12294 63.3557 1.12294 63.3378 1.10493 62.0491C1.10493 61.3511 1.15897 60.7605 1.24903 60.7605C1.33909 60.7605 1.41114 60.8858 1.41114 61.029C1.41114 61.1901 1.55524 61.7986 1.73537 62.3713C2.02357 63.3915 2.07761 63.4452 2.61798 63.4452C3.15836 63.4452 3.21239 63.3736 3.39252 62.6756C3.50059 62.2639 3.69873 61.6017 3.84283 61.208L4.07699 60.492L4.09501 61.9597L4.11302 63.4452H4.65339H5.19377V61.2974V59.1497H4.38321H3.59066L3.21239 60.3847C3.01426 61.0469 2.85214 61.6912 2.85214 61.8165C2.85214 61.9239 2.78009 62.0134 2.69003 62.0134C2.61798 62.0134 2.36581 61.369 2.13164 60.5815L1.71736 59.1497H0.942819H0.150269V61.3153Z" fill="#1E2F97"/>
<path d="M10.7772 61.2991V63.4468H11.3176C11.84 63.4468 11.858 63.4289 11.858 62.5519V61.657H12.5785H13.299V62.5519V63.4468H13.9294H14.5598V61.2991V59.1514H13.9294C13.299 59.1514 13.299 59.1514 13.299 59.9568V60.7621H12.5785H11.858V59.9568C11.858 59.1871 11.84 59.1514 11.3176 59.1514H10.7772V61.2991Z" fill="#1E2F97"/>
<path d="M28.9705 59.5988C28.9705 59.9746 29.0605 60.0462 29.5108 60.0462H30.0512V61.7465V63.4468H30.5916H31.132V61.7465V60.0462H31.6723C32.1226 60.0462 32.2127 59.9746 32.2127 59.5988C32.2127 59.1514 32.1947 59.1514 30.5916 59.1514C28.9885 59.1514 28.9705 59.1514 28.9705 59.5988Z" fill="#1E2F97"/>
<path d="M41.2188 61.3153V63.4631L41.7231 63.4094C42.2094 63.3557 42.2094 63.3557 42.2094 61.9776C42.1914 61.208 42.2275 60.6352 42.2815 60.6889C42.3535 60.7426 42.5517 61.369 42.7498 62.067C43.092 63.2841 43.1461 63.3557 43.6865 63.4094C44.2268 63.4631 44.2629 63.4273 44.5511 62.425C45.1094 60.4205 45.1455 60.4026 45.1635 61.9597L45.1815 63.4452H45.7219H46.2622V61.2974V59.1497H45.4697H44.6771L44.2989 60.3847C44.0827 61.0648 43.9206 61.7091 43.9206 61.8165C43.9206 61.9239 43.8486 62.0134 43.7585 62.0134C43.6865 62.0134 43.4343 61.369 43.2001 60.5815L42.7858 59.1497H42.0113H41.2188V61.3153Z" fill="#1E2F97"/>
<path d="M48.1546 59.3661C48.1006 59.4914 47.8304 60.3147 47.5422 61.2096C47.254 62.0866 46.9658 62.9636 46.8937 63.1246C46.7857 63.3931 46.8757 63.4468 47.4161 63.4468C47.7763 63.4468 48.0645 63.3752 48.0645 63.2857C48.0645 62.9278 48.6229 62.5877 49.1093 62.6414C49.3795 62.6772 49.6496 62.713 49.7037 62.713C49.7757 62.7309 49.8658 62.892 49.9198 63.0889C49.9919 63.3573 50.172 63.4468 50.5683 63.4468C50.8925 63.4468 51.1267 63.3573 51.1267 63.2141C51.1267 63.1068 50.8385 62.1403 50.4782 61.0664L49.8118 59.1514H49.0192C48.5509 59.1514 48.1906 59.2408 48.1546 59.3661ZM49.3975 61.1559C49.5055 61.6033 49.4695 61.657 49.0372 61.657C48.5869 61.657 48.5689 61.6212 48.695 60.9948C48.9111 59.7957 49.0732 59.8315 49.3975 61.1559Z" fill="#1E2F97"/>
<path d="M51.8461 61.2991V63.4468H52.2964C52.7107 63.4468 52.7467 63.3931 52.7647 62.4982C52.7827 61.9971 52.7647 61.3528 52.7467 61.0664C52.6927 60.2431 52.9809 60.5295 53.7374 62.015L54.4579 63.4468H55.2144H55.9889V61.2991V59.1514H55.4306H54.8722L54.9442 60.4937C54.9802 61.2275 54.9442 61.836 54.8722 61.836C54.8181 61.836 54.4399 61.2275 54.0616 60.4937L53.3771 59.1514H52.6206H51.8461V61.2991Z" fill="#1E2F97"/>
<path d="M66.2557 61.2991V63.4468H67.5166C68.7415 63.4468 68.7775 63.4289 68.7775 62.9994C68.7775 62.5877 68.7054 62.5519 68.057 62.5519C67.4085 62.5519 67.3365 62.4982 67.3365 62.1045C67.3365 61.7107 67.4085 61.657 67.9489 61.657C68.3992 61.657 68.5793 61.5675 68.6514 61.317C68.7595 60.8516 68.6514 60.7621 67.9309 60.7621C67.4626 60.7621 67.3365 60.6906 67.3365 60.4042C67.3365 60.0999 67.4626 60.0462 68.057 60.0462C68.7054 60.0462 68.7775 59.9925 68.7775 59.5988C68.7775 59.1693 68.7415 59.1514 67.5166 59.1514H66.2557V61.2991Z" fill="#1E2F97"/>
<path d="M69.6781 61.2974V63.4452H70.1284C70.5787 63.4452 70.5787 63.4273 70.5787 61.9597C70.5967 60.331 70.7228 60.3847 71.2092 62.2281C71.5154 63.4094 71.5514 63.4452 72.1098 63.4452C72.6682 63.4452 72.7042 63.4094 73.0104 62.2281C73.4968 60.3847 73.6228 60.331 73.6409 61.9776V63.4631L74.1452 63.4094L74.6315 63.3557V61.2974V59.2392H73.839H73.0464L72.6862 60.492C72.5061 61.1722 72.2719 61.8165 72.1999 61.906C72.1098 61.9955 71.9477 61.7091 71.8396 61.2795C71.2632 59.096 71.2812 59.1497 70.4526 59.1497H69.6781V61.2974Z" fill="#1E2F97"/>
<path d="M75.6229 61.2991V63.4468H76.9919C78.2888 63.4468 78.3428 63.4289 78.2888 63.0352C78.2527 62.713 78.1086 62.6235 77.5683 62.5877C76.9739 62.534 76.8838 62.4624 76.8838 62.0866C76.8838 61.7107 76.9739 61.657 77.5142 61.657C78.0726 61.657 78.1447 61.6033 78.1447 61.2096C78.1447 60.8158 78.0726 60.7621 77.5322 60.7621C77.0819 60.7621 76.9018 60.6727 76.8298 60.4221C76.7577 60.1178 76.8478 60.0641 77.4962 60.0104C78.1086 59.9746 78.2527 59.8852 78.2888 59.5451C78.3428 59.1693 78.2888 59.1514 76.9919 59.1514H75.6229V61.2991Z" fill="#1E2F97"/>
<path d="M79.0453 61.2812V63.4468H79.5857H80.108L80.1621 61.9613L80.2161 60.4937L80.9546 61.9255L81.7111 63.3573H82.4857H83.2782L83.3323 61.2454L83.3863 59.1514H82.8459H82.3056L82.2515 60.6011L82.1975 62.0508L81.459 60.6369L80.7024 59.2408L79.8739 59.1871L79.0453 59.1335V61.2812Z" fill="#1E2F97"/>
<path d="M83.9812 59.5451C84.0172 59.8673 84.1793 59.9746 84.5936 60.0104L85.17 60.0641V61.7644V63.4468H85.7104H86.2508V61.7465V60.0462H86.7912C87.2415 60.0462 87.3315 59.9746 87.3315 59.5988C87.3315 59.1514 87.3315 59.1514 85.6203 59.1514C83.9452 59.1514 83.9092 59.1693 83.9812 59.5451Z" fill="#1E2F97"/>
</svg>
