<svg width="48" height="48" viewBox="0 0 48 48" fill="none" xmlns="http://www.w3.org/2000/svg">
<path d="M24 30C27.3082 30 30 27.3082 30 24C30 20.6918 27.3082 18 24 18C20.6918 18 18 20.6918 18 24C18 27.3082 20.6918 30 24 30ZM24 19.5C26.4818 19.5 28.5 21.5182 28.5 24C28.5 26.4818 26.4818 28.5 24 28.5C21.5182 28.5 19.5 26.4818 19.5 24C19.5 21.5182 21.5182 19.5 24 19.5Z" fill="#0B1B7E"/>
<path d="M24 27C25.6545 27 27 25.6545 27 24C27 22.3455 25.6545 21 24 21C22.3455 21 21 22.3455 21 24C21 25.6545 22.3455 27 24 27ZM24 22.5C24.8273 22.5 25.5 23.1727 25.5 24C25.5 24.8273 24.8273 25.5 24 25.5C23.1727 25.5 22.5 24.8273 22.5 24C22.5 23.1727 23.1727 22.5 24 22.5Z" fill="#0B1B7E"/>
<path d="M19.0725 32.8605L20.3835 32.2335C20.5005 32.2852 20.6182 32.3347 20.7368 32.3805L21.219 33.75H26.7803L27.264 32.3805C27.3818 32.334 27.4995 32.2852 27.6173 32.2335L28.9282 32.8605L32.8612 28.9275L32.2342 27.6165C32.286 27.4995 32.3355 27.3818 32.3812 27.2633L33.75 26.781V21.2197L32.3805 20.736C32.334 20.6183 32.2852 20.5005 32.2335 20.3828L32.8605 19.0718L28.9275 15.1387L27.6165 15.7657C27.4995 15.714 27.3818 15.6645 27.2633 15.6188L26.781 14.25H21.2197L20.736 15.6195C20.6183 15.666 20.5005 15.7147 20.3828 15.7665L19.0718 15.1395L15.1387 19.0725L15.7657 20.3835C15.714 20.5005 15.6645 20.6182 15.6188 20.7368L14.25 21.219V26.7803L15.6195 27.264C15.666 27.3818 15.7147 27.4995 15.7665 27.6173L15.1395 28.9282L19.0725 32.8605ZM15.75 25.719V22.2803L16.794 21.912L16.9117 21.5685C17.01 21.2812 17.1308 20.9918 17.2703 20.7083L17.43 20.382L16.9515 19.3815L19.383 16.95L20.3835 17.4285L20.7098 17.2687C20.9933 17.1292 21.2828 17.0093 21.57 16.9103L21.9135 16.7925L22.281 15.75H25.7197L26.088 16.794L26.4315 16.9117C26.7188 17.01 27.0083 17.1308 27.2917 17.2703L27.618 17.43L28.6185 16.9515L31.05 19.383L30.5715 20.3835L30.7312 20.7098C30.8707 20.9933 30.9907 21.2828 31.0897 21.57L31.2075 21.9135L32.25 22.281V25.7197L31.206 26.088L31.0882 26.4315C30.99 26.7188 30.8692 27.0083 30.7297 27.2917L30.57 27.618L31.0485 28.6185L28.617 31.05L27.6165 30.5715L27.2903 30.7312C27.0068 30.8707 26.7173 30.9907 26.43 31.0897L26.0865 31.2075L25.719 32.25H22.2803L21.912 31.206L21.5685 31.0882C21.2812 30.99 20.9918 30.8692 20.7083 30.7297L20.382 30.57L19.3815 31.0485L16.95 28.617L17.4285 27.6165L17.2687 27.2903C17.1292 27.0068 17.0093 26.7173 16.9103 26.43L16.7925 26.0865L15.75 25.719Z" fill="#0B1B7E"/>
<path d="M10.5 35.25H3C1.7595 35.25 0.75 36.2595 0.75 37.5V45C0.75 46.2405 1.7595 47.25 3 47.25H10.5C11.7405 47.25 12.75 46.2405 12.75 45V37.5C12.75 36.2595 11.7405 35.25 10.5 35.25ZM11.25 45C11.25 45.4132 10.9132 45.75 10.5 45.75H3C2.58675 45.75 2.25 45.4132 2.25 45V37.5C2.25 37.0868 2.58675 36.75 3 36.75H10.5C10.9132 36.75 11.25 37.0868 11.25 37.5V45Z" fill="#0B1B7E"/>
<path d="M45 18H37.5C36.2595 18 35.25 19.0095 35.25 20.25V27.75C35.25 28.9905 36.2595 30 37.5 30H45C46.2405 30 47.25 28.9905 47.25 27.75V20.25C47.25 19.0095 46.2405 18 45 18ZM45.75 27.75C45.75 28.1632 45.4132 28.5 45 28.5H37.5C37.0868 28.5 36.75 28.1632 36.75 27.75V20.25C36.75 19.8368 37.0868 19.5 37.5 19.5H45C45.4132 19.5 45.75 19.8368 45.75 20.25V27.75Z" fill="#0B1B7E"/>
<path d="M7.5 12.75H15C16.2405 12.75 17.25 11.7405 17.25 10.5V3C17.25 1.7595 16.2405 0.75 15 0.75H7.5C6.2595 0.75 5.25 1.7595 5.25 3V10.5C5.25 11.7405 6.2595 12.75 7.5 12.75ZM6.75 3C6.75 2.58675 7.08675 2.25 7.5 2.25H15C15.4132 2.25 15.75 2.58675 15.75 3V10.5C15.75 10.9132 15.4132 11.25 15 11.25H7.5C7.08675 11.25 6.75 10.9132 6.75 10.5V3Z" fill="#0B1B7E"/>
<path d="M5.25095 42.4385L4.2812 41.4688L3.2207 42.5293L5.25095 44.5595L10.2812 39.5293L9.2207 38.4688L5.25095 42.4385Z" fill="#0B1B7E"/>
<path d="M14.7812 5.02925L13.7207 3.96875L9.75095 7.9385L8.7812 6.96875L7.7207 8.02925L9.75095 10.0595L14.7812 5.02925Z" fill="#0B1B7E"/>
<path d="M39.751 25.1885L38.7812 24.2188L37.7207 25.2793L39.751 27.3095L44.7812 22.2793L43.7207 21.2188L39.751 25.1885Z" fill="#0B1B7E"/>
<path d="M35.068 33.7719L35.4317 35.2269L39.6947 34.1612C36.2515 39.4952 30.3895 42.7494 24.0002 42.7494C21.256 42.7494 18.6115 42.1704 16.141 41.0282L15.5117 42.3894C18.181 43.6239 21.037 44.2494 24.0002 44.2494C30.7945 44.2494 37.0345 40.8444 40.7755 35.2464L41.2562 39.0924L42.7442 38.9064L41.8892 32.0664L35.068 33.7719Z" fill="#0B1B7E"/>
<path d="M8.98067 27.1753L7.52192 26.8266L6.60692 30.6561C5.70992 28.4361 5.25092 26.2048 5.25092 24.0013C5.25092 21.2338 5.83967 18.5691 7.00067 16.0798L5.64092 15.4453C4.38692 18.1348 3.75092 21.0133 3.75092 24.0013C3.75092 26.3886 4.24217 28.7968 5.20217 31.1856L1.86317 29.3443L1.13867 30.6583L7.33217 34.0723L8.98067 27.1753Z" fill="#0B1B7E"/>
<path d="M25.1669 6.875L22.7279 5.249H24.0007C31.0169 5.249 37.3927 9.1175 40.6387 15.3448L41.9684 14.651C38.4637 7.9265 31.5787 3.749 24.0007 3.749H22.7279L25.1669 2.123L24.3352 0.875L18.8984 4.499L24.3344 8.123L25.1669 6.875Z" fill="#0B1B7E"/>
</svg>
