<svg width="48" height="48" viewBox="0 0 48 48" fill="none" xmlns="http://www.w3.org/2000/svg">
<g clip-path="url(#clip0_840_16384)">
<path d="M3 16.5C2.80109 16.5 2.61032 16.579 2.46967 16.7197C2.32902 16.8603 2.25 17.0511 2.25 17.25V20.25C2.25 20.4489 2.32902 20.6397 2.46967 20.7803C2.61032 20.921 2.80109 21 3 21H4.63528C4.87048 22.0193 5.2605 22.9964 5.79178 23.8975L3.96966 25.7197C3.90001 25.7893 3.84476 25.872 3.80707 25.963C3.76937 26.054 3.74997 26.1515 3.74997 26.25C3.74997 26.3485 3.76937 26.446 3.80707 26.537C3.84476 26.628 3.90001 26.7107 3.96966 26.7803L6.21966 29.0303C6.2893 29.1 6.37198 29.1552 6.46298 29.1929C6.55398 29.2306 6.65151 29.25 6.75 29.25C6.84849 29.25 6.94602 29.2306 7.03702 29.1929C7.12802 29.1552 7.2107 29.1 7.28034 29.0303L9.10247 27.2082C10.0036 27.7395 10.9807 28.1295 12 28.3647V30.75C12 30.9489 12.079 31.1397 12.2197 31.2803C12.3603 31.421 12.5511 31.5 12.75 31.5H15.3797C15.8601 33.3632 16.7816 35.0835 18.0666 36.5157C19.3516 37.9479 20.9623 39.0499 22.7627 39.7287C24.5631 40.4075 26.5004 40.6432 28.4111 40.4159C30.3218 40.1887 32.1497 39.505 33.7406 38.4228L41.159 45.841C41.3679 46.05 41.616 46.2157 41.8889 46.3288C42.1619 46.4419 42.4545 46.5001 42.75 46.5001C43.0455 46.5001 43.3381 46.4419 43.6111 46.3288C43.884 46.2157 44.1321 46.05 44.341 45.841C44.55 45.6321 44.7157 45.384 44.8288 45.1111C44.9419 44.8381 45.0001 44.5455 45.0001 44.25C45.0001 43.9545 44.9419 43.6619 44.8288 43.3889C44.7157 43.116 44.55 42.8679 44.341 42.659L36.9227 35.2406C38.5673 32.8251 39.2723 29.8918 38.9049 26.9927C38.5375 24.0937 37.1231 21.4289 34.928 19.5H36C36.1989 19.5 36.3897 19.421 36.5303 19.2803C36.671 19.1397 36.75 18.9489 36.75 18.75V15.8869C36.8978 15.495 39 9.91162 39 9.75C39 8.10075 38.5349 6.7995 37.6178 5.88225C36.7006 4.965 35.3993 4.5 33.75 4.5C32.1007 4.5 30.7995 4.96509 29.8822 5.88225C28.965 6.79941 28.5 8.10075 28.5 9.75C28.5 9.83991 30.75 15.8859 30.75 15.8859V17.1007C29.54 16.7019 28.274 16.4991 27 16.5H23.8647C23.6295 15.4807 23.2395 14.5036 22.7082 13.6025L24.5303 11.7803C24.6 11.7107 24.6552 11.628 24.6929 11.537C24.7306 11.446 24.75 11.3485 24.75 11.25C24.75 11.1515 24.7306 11.054 24.6929 10.963C24.6552 10.872 24.6 10.7893 24.5303 10.7197L22.2803 8.46966C22.2107 8.40001 22.128 8.34476 22.037 8.30707C21.946 8.26937 21.8485 8.24997 21.75 8.24997C21.6515 8.24997 21.554 8.26937 21.463 8.30707C21.372 8.34476 21.2893 8.40001 21.2197 8.46966L19.3975 10.2918C18.4964 9.7605 17.5193 9.37048 16.5 9.13528V6.75C16.5 6.55109 16.421 6.36032 16.2803 6.21967C16.1397 6.07902 15.9489 6 15.75 6H12.75C12.5511 6 12.3603 6.07902 12.2197 6.21967C12.079 6.36032 12 6.55109 12 6.75V9.13528C10.9807 9.37048 10.0036 9.7605 9.10247 10.2918L7.28034 8.46966C7.2107 8.40001 7.12802 8.34476 7.03702 8.30707C6.94602 8.26937 6.84849 8.24997 6.75 8.24997C6.65151 8.24997 6.55398 8.26937 6.46298 8.30707C6.37198 8.34476 6.2893 8.40001 6.21966 8.46966L3.96966 10.7197C3.90001 10.7893 3.84476 10.872 3.80707 10.963C3.76937 11.054 3.74997 11.1515 3.74997 11.25C3.74997 11.3485 3.76937 11.446 3.80707 11.537C3.84476 11.628 3.90001 11.7107 3.96966 11.7803L5.79178 13.6025C5.2605 14.5036 4.87048 15.4807 4.63528 16.5H3ZM43.2803 43.7197C43.3517 43.789 43.4085 43.8718 43.4475 43.9632C43.4866 44.0546 43.5071 44.1529 43.5078 44.2523C43.5085 44.3517 43.4895 44.4503 43.4517 44.5423C43.414 44.6342 43.3584 44.7178 43.2881 44.7881C43.2178 44.8584 43.1342 44.914 43.0422 44.9517C42.9503 44.9894 42.8517 45.0085 42.7523 45.0077C42.6529 45.007 42.5546 44.9865 42.4632 44.9475C42.3718 44.9084 42.289 44.8516 42.2197 44.7803L34.9339 37.4946C35.309 37.1633 35.6632 36.8091 35.9945 36.434L43.2803 43.7197ZM30.0012 9.61725C30.0457 7.21678 31.3064 6 33.75 6C36.1969 6 37.4574 7.21969 37.4989 9.62597C37.288 10.2051 36.2631 12.9284 35.4815 15H32.0197L30.0012 9.61725ZM32.25 16.5H35.25V18H32.8039C32.6221 17.8991 32.4375 17.8028 32.25 17.711V16.5ZM37.5 28.5C37.5 30.5764 36.8844 32.6062 35.7309 34.3327C34.5775 36.0593 32.938 37.4051 31.0198 38.2C29.1016 38.995 26.9908 39.2033 24.9542 38.7988C22.9176 38.3942 21.0467 37.3949 19.5779 35.9272C18.1092 34.4594 17.1086 32.5892 16.7026 30.5529C16.2967 28.5165 16.5036 26.4056 17.2972 24.4868C18.0908 22.5681 19.4355 20.9277 21.1613 19.7731C22.887 18.6185 24.9164 18.0014 26.9928 18H27C29.7838 18.0032 32.4527 19.1104 34.4211 21.0789C36.3896 23.0473 37.4968 25.7162 37.5 28.5ZM14.25 22.5C13.5083 22.5 12.7833 22.2801 12.1666 21.868C11.5499 21.456 11.0693 20.8703 10.7855 20.1851C10.5016 19.4998 10.4274 18.7458 10.5721 18.0184C10.7167 17.291 11.0739 16.6228 11.5983 16.0983C12.1228 15.5739 12.791 15.2167 13.5184 15.0721C14.2458 14.9274 14.9998 15.0016 15.6851 15.2855C16.3703 15.5693 16.956 16.0499 17.368 16.6666C17.7801 17.2833 18 18.0083 18 18.75C17.9989 19.7442 17.6034 20.6974 16.9004 21.4004C16.1974 22.1034 15.2442 22.4989 14.25 22.5ZM5.98978 17.3735C6.19587 16.1402 6.66482 14.9657 7.36481 13.9296C7.46574 13.7851 7.51261 13.6098 7.49718 13.4343C7.48175 13.2587 7.40502 13.0943 7.28044 12.9697L5.56059 11.25L6.75 10.0606L8.46966 11.7803C8.59426 11.9049 8.75875 11.9817 8.93427 11.9971C9.10979 12.0125 9.28514 11.9657 9.42956 11.8647C10.4657 11.1647 11.6402 10.6958 12.8735 10.4897C13.0485 10.4605 13.2076 10.3701 13.3223 10.2347C13.437 10.0992 13.5 9.92749 13.5 9.75V7.5H15V9.75C15 9.92751 15.063 10.0993 15.1777 10.2347C15.2924 10.3702 15.4514 10.4606 15.6265 10.4898C16.8598 10.6959 18.0343 11.1648 19.0704 11.8648C19.2149 11.9657 19.3902 12.0126 19.5657 11.9972C19.7413 11.9817 19.9057 11.905 20.0303 11.7804L21.75 10.0606L22.9394 11.25L21.2197 12.9697C21.0951 13.0943 21.0183 13.2587 21.0029 13.4343C20.9875 13.6098 21.0343 13.7851 21.1353 13.9296C21.835 14.9652 22.3038 16.1392 22.51 17.3719C21.4192 17.8141 20.3992 18.4142 19.4829 19.1531C19.4932 19.0197 19.5 18.8855 19.5 18.7495C19.5005 17.6343 19.1459 16.5478 18.4877 15.6475C17.8295 14.7471 16.9017 14.0797 15.8389 13.7418C14.776 13.404 13.6332 13.4132 12.5759 13.7682C11.5187 14.1232 10.6018 14.8056 9.95825 15.7164C9.31466 16.6272 8.97772 17.7193 8.99622 18.8344C9.01473 19.9495 9.38771 21.0298 10.0612 21.9188C10.7346 22.8078 11.6736 23.4593 12.742 23.7791C13.8105 24.0988 14.953 24.0701 16.0041 23.6972C15.3402 25.2113 14.9983 26.8468 15 28.5C15.0001 29.0015 15.0314 29.5024 15.0938 30H13.5V27.75C13.5 27.5725 13.437 27.4007 13.3223 27.2653C13.2076 27.1298 13.0486 27.0394 12.8735 27.0102C11.6402 26.8041 10.4657 26.3352 9.42956 25.6352C9.28514 25.5343 9.10979 25.4874 8.93427 25.5028C8.75875 25.5182 8.59426 25.595 8.46966 25.7196L6.75 27.4394L5.56059 26.25L7.28034 24.5303C7.40492 24.4057 7.48166 24.2413 7.49708 24.0657C7.51251 23.8902 7.46565 23.7149 7.36472 23.5704C6.66473 22.5343 6.19578 21.3598 5.98969 20.1265C5.96047 19.9515 5.8701 19.7924 5.73467 19.6777C5.59923 19.563 5.42749 19.5 5.25 19.5H3.75V18H5.25C5.42751 18 5.59927 17.937 5.73472 17.8223C5.87018 17.7076 5.96056 17.5486 5.98978 17.3735Z" fill="#0B1B7E"/>
<path d="M25.5792 4.16453C25.4902 4.34244 25.4756 4.54839 25.5385 4.73709C25.6014 4.92579 25.7366 5.08178 25.9145 5.17075L27.4145 5.92075C27.5027 5.96571 27.5989 5.99277 27.6976 6.00037C27.7963 6.00797 27.8955 5.99596 27.9896 5.96503C28.0836 5.9341 28.1706 5.88486 28.2455 5.82016C28.3204 5.75546 28.3817 5.67656 28.426 5.58803C28.4703 5.4995 28.4966 5.40308 28.5034 5.30434C28.5102 5.20559 28.4975 5.10647 28.4658 5.01268C28.4341 4.9189 28.3842 4.83231 28.3189 4.75791C28.2537 4.68351 28.1743 4.62277 28.0854 4.57919L26.5854 3.82919C26.4075 3.74023 26.2016 3.72559 26.0128 3.78847C25.8241 3.85136 25.6682 3.98663 25.5792 4.16453Z" fill="#0B1B7E"/>
<path d="M33 0.75V2.25C33 2.44891 33.079 2.63968 33.2197 2.78033C33.3603 2.92098 33.5511 3 33.75 3C33.9489 3 34.1397 2.92098 34.2803 2.78033C34.421 2.63968 34.5 2.44891 34.5 2.25V0.75C34.5 0.551088 34.421 0.360322 34.2803 0.21967C34.1397 0.0790176 33.9489 0 33.75 0C33.5511 0 33.3603 0.0790176 33.2197 0.21967C33.079 0.360322 33 0.551088 33 0.75Z" fill="#0B1B7E"/>
<path d="M28.9145 0.829189C28.7366 0.918157 28.6014 1.07415 28.5385 1.26285C28.4756 1.45155 28.4902 1.6575 28.5792 1.83541L29.3292 3.33541C29.3728 3.42428 29.4335 3.50365 29.5079 3.56894C29.5823 3.63422 29.6689 3.68413 29.7627 3.7158C29.8565 3.74746 29.9556 3.76024 30.0543 3.75341C30.1531 3.74658 30.2495 3.72027 30.338 3.676C30.4266 3.63173 30.5055 3.57037 30.5702 3.49546C30.6349 3.42056 30.6841 3.33358 30.715 3.23956C30.746 3.14553 30.758 3.04631 30.7504 2.94762C30.7428 2.84893 30.7157 2.75272 30.6708 2.66453L29.9208 1.16453C29.8318 0.986635 29.6758 0.851364 29.4871 0.788475C29.2984 0.725586 29.0924 0.740231 28.9145 0.829189Z" fill="#0B1B7E"/>
<path d="M37.5799 1.16589L36.8299 2.66589C36.7849 2.75407 36.7579 2.85028 36.7503 2.94897C36.7427 3.04766 36.7547 3.14688 36.7856 3.24091C36.8165 3.33494 36.8658 3.42191 36.9305 3.49682C36.9952 3.57173 37.0741 3.63308 37.1626 3.67736C37.2511 3.72163 37.3475 3.74794 37.4463 3.75477C37.545 3.7616 37.6442 3.74881 37.7379 3.71715C37.8317 3.68549 37.9183 3.63558 37.9927 3.57029C38.0671 3.505 38.1279 3.42564 38.1714 3.33676L38.9214 1.83676C38.9664 1.74858 38.9935 1.65237 39.0011 1.55368C39.0087 1.45499 38.9967 1.35577 38.9657 1.26174C38.9348 1.16771 38.8856 1.08074 38.8209 1.00583C38.7561 0.930922 38.6773 0.869564 38.5887 0.825292C38.5002 0.78102 38.4038 0.754711 38.305 0.747881C38.2063 0.741051 38.1072 0.753836 38.0134 0.785498C37.9196 0.81716 37.833 0.867073 37.7586 0.932359C37.6842 0.997645 37.6235 1.07701 37.5799 1.16589Z" fill="#0B1B7E"/>
<path d="M40.9139 3.82793L39.4139 4.57793C39.3251 4.62151 39.2457 4.68225 39.1804 4.75665C39.1151 4.83105 39.0652 4.91764 39.0335 5.01142C39.0019 5.1052 38.9891 5.20433 38.9959 5.30308C39.0028 5.40182 39.0291 5.49824 39.0733 5.58677C39.1176 5.6753 39.179 5.7542 39.2539 5.8189C39.3288 5.8836 39.4158 5.93284 39.5098 5.96377C39.6038 5.9947 39.703 6.00671 39.8017 5.99911C39.9004 5.99151 39.9966 5.96445 40.0848 5.91949L41.5848 5.16949C41.6737 5.12591 41.753 5.06517 41.8183 4.99077C41.8836 4.91637 41.9335 4.82978 41.9652 4.736C41.9969 4.64221 42.0096 4.54309 42.0028 4.44434C41.996 4.3456 41.9697 4.24918 41.9254 4.16065C41.8811 4.07212 41.8198 3.99322 41.7449 3.92852C41.67 3.86381 41.583 3.81458 41.489 3.78365C41.3949 3.75272 41.2957 3.74071 41.197 3.74831C41.0983 3.75591 41.0021 3.78297 40.9139 3.82793Z" fill="#0B1B7E"/>
<path d="M18 28.5C18 30.28 18.5278 32.0201 19.5168 33.5001C20.5057 34.9802 21.9113 36.1337 23.5558 36.8149C25.2004 37.4961 27.01 37.6743 28.7558 37.3271C30.5016 36.9798 32.1053 36.1226 33.364 34.864C34.6226 33.6053 35.4798 32.0016 35.8271 30.2558C36.1743 28.51 35.9961 26.7004 35.3149 25.0558C34.6337 23.4113 33.4802 22.0057 32.0001 21.0168C30.5201 20.0278 28.78 19.5 27 19.5C24.6139 19.5027 22.3262 20.4518 20.639 22.139C18.9518 23.8262 18.0027 26.1139 18 28.5ZM34.5 28.5C34.5 29.9834 34.0601 31.4334 33.236 32.6668C32.4119 33.9001 31.2406 34.8614 29.8701 35.4291C28.4997 35.9968 26.9917 36.1453 25.5368 35.8559C24.082 35.5665 22.7456 34.8522 21.6967 33.8033C20.6478 32.7544 19.9335 31.418 19.6441 29.9632C19.3547 28.5083 19.5032 27.0003 20.0709 25.6299C20.6386 24.2594 21.5999 23.0881 22.8332 22.264C24.0666 21.4399 25.5166 21 27 21C28.9884 21.0023 30.8948 21.7932 32.3008 23.1992C33.7068 24.6052 34.4977 26.5116 34.5 28.5Z" fill="#0B1B7E"/>
<path d="M22.5 28.5C22.5 28.3011 22.421 28.1103 22.2803 27.9697C22.1397 27.829 21.9489 27.75 21.75 27.75C21.5511 27.75 21.3603 27.829 21.2197 27.9697C21.079 28.1103 21 28.3011 21 28.5C21.0018 30.0908 21.6345 31.6158 22.7593 32.7407C23.8842 33.8655 25.4092 34.4982 27 34.5C27.1989 34.5 27.3897 34.421 27.5303 34.2803C27.671 34.1397 27.75 33.9489 27.75 33.75C27.75 33.5511 27.671 33.3603 27.5303 33.2197C27.3897 33.079 27.1989 33 27 33C25.8069 32.9987 24.6631 32.5242 23.8195 31.6805C22.9758 30.8369 22.5013 29.6931 22.5 28.5Z" fill="#0B1B7E"/>
</g>
<defs>
<clipPath id="clip0_840_16384">
<rect width="48" height="48" fill="white"/>
</clipPath>
</defs>
</svg>
