<svg width="48" height="48" viewBox="0 0 48 48" fill="none" xmlns="http://www.w3.org/2000/svg">
<g opacity="0.8">
<path d="M46.6102 41.9639C46.6099 41.9554 46.6102 41.947 46.6099 41.9386L46.1144 35.4742C46.0594 34.7334 45.6471 34.0614 45.011 33.6772L44.8982 33.6091L44.6038 31.4481C44.9843 31.1317 45.2955 30.7351 45.5112 30.2839C45.5189 30.2682 45.5262 30.2524 45.5328 30.2363C45.7332 29.8009 45.8459 29.3168 45.8459 28.807V26.2043C45.8459 24.7289 44.6451 23.5288 43.1697 23.5288H41.6503C40.3993 23.5288 39.3464 24.3916 39.0546 25.5529C39.0432 25.5748 39.0326 25.5972 39.0234 25.6206C38.9751 25.7426 38.9641 25.8693 38.9832 25.9897C38.9777 26.0604 38.974 26.1318 38.974 26.204V28.807C38.974 30.0159 39.6024 31.0801 40.5494 31.6924L40.3539 33.6395C40.3136 33.6707 40.2759 33.7054 40.2433 33.7446L35.9938 38.8328L33.0498 38.8221C32.993 38.8214 32.9421 38.828 32.8898 38.8401C32.3676 38.9602 31.9043 39.2052 31.5271 39.5396V38.5782C31.5271 36.6655 30.3094 34.9696 28.4971 34.3584L27.2816 33.9493C27.0842 33.8834 26.9055 33.7703 26.7631 33.6205C26.5323 33.3799 26.4053 33.062 26.4053 32.7262V31.4174L26.8187 31.1658C27.5427 30.7245 27.9928 29.9232 27.9928 29.0747V26.9218C27.9928 26.9196 27.9928 26.9174 27.9928 26.9152V25.0372C27.9928 23.5409 26.7762 22.3232 25.281 22.3232H22.7948C21.2996 22.3232 20.0834 23.5409 20.0834 25.0372V26.6562V26.6584V29.0747C20.0834 29.9232 20.5331 30.7245 21.2574 31.1658L21.6713 31.4181V32.7266C21.6713 33.0847 21.5208 33.4301 21.2596 33.6736C21.1252 33.7988 20.9689 33.8915 20.7935 33.9501L19.5795 34.3584C17.7671 34.9696 16.5494 36.6652 16.5494 38.5786V39.5938C16.162 39.2319 15.6775 38.9668 15.1278 38.8405C15.0754 38.8284 15.0249 38.8221 14.9678 38.8225L12.0238 38.8328L7.77429 33.745C7.7417 33.7058 7.70435 33.6707 7.6637 33.6395L7.46814 31.6924C8.41516 31.0801 9.04395 30.0159 9.04395 28.807V26.2043C9.04395 26.1318 9.03992 26.0608 9.03442 25.9897C9.05347 25.8693 9.04248 25.7426 8.99451 25.621C8.98499 25.5975 8.97473 25.5748 8.96301 25.5532C8.67151 24.3916 7.61865 23.5288 6.36731 23.5288H4.84863C3.3728 23.5288 2.17236 24.7292 2.17236 26.2043V28.807C2.17236 29.3171 2.28479 29.8009 2.48511 30.2363C2.4917 30.2524 2.49902 30.2686 2.50671 30.2843C2.72241 30.7351 3.03369 31.1317 3.41418 31.4481L3.11975 33.6095L3.00732 33.6776C2.37122 34.0618 1.9585 34.7338 1.90393 35.4728L1.40845 41.939C1.40771 41.9474 1.40808 41.9558 1.40771 41.9642C1.40735 41.9738 1.40625 41.9829 1.40625 41.9928V43.781C1.40625 46.1072 3.29956 47.9998 5.62683 47.9998H42.3911C44.7184 47.9998 46.6117 46.1072 46.6117 43.7806V41.9924C46.6117 41.9825 46.6106 41.9734 46.6102 41.9639ZM41.6503 24.9351H43.1697C43.8699 24.9351 44.4397 25.5045 44.4397 26.2043V28.8052L43.708 28.2917V27.6348C43.708 27.0781 43.3733 26.5859 42.8555 26.3812L40.6022 25.4895C40.8311 25.1552 41.2152 24.9351 41.6503 24.9351ZM40.3802 26.9141L42.3018 27.6743V28.3218C42.3018 28.7605 42.516 29.1732 42.8756 29.4255L43.9211 30.1591C43.5494 30.574 43.0096 30.8354 42.4098 30.8354C41.2906 30.8354 40.3802 29.9254 40.3802 28.807V26.9141ZM42.4102 32.2417C42.7097 32.2417 43.0005 32.2029 43.2777 32.1304L43.3909 32.9606C42.876 32.8558 42.3464 32.8588 41.8348 32.9686L41.9114 32.2051C42.0743 32.2289 42.2406 32.2417 42.4102 32.2417ZM33.1329 40.2288L36.3193 40.2401H36.3219C36.5303 40.2401 36.728 40.1478 36.8613 39.9878L41.265 34.7155C42.0472 34.1771 43.0664 34.1449 43.8834 34.6389L44.2837 34.8806C44.5305 35.03 44.6906 35.2908 44.7122 35.5801L45.1498 41.2893H41.7242V38.8284L42.1472 38.3842C42.4153 38.1029 42.4043 37.658 42.123 37.3899C41.8422 37.1222 41.3969 37.1332 41.1292 37.4141L37.4385 41.2893H31.9948C32.1731 40.7795 32.5902 40.3782 33.1329 40.2288ZM28.0481 35.691C29.2881 36.1093 30.1208 37.2698 30.1208 38.5782V41.2893H25.1477L26.1035 40.3262C26.287 40.1412 26.3533 39.8699 26.2753 39.6212L24.8906 35.197C25.3033 35.1377 25.7098 35.041 26.1083 34.9081C26.3291 35.0685 26.5748 35.1959 26.8348 35.2827L28.0481 35.691ZM23.0775 32.2454C23.3848 32.3772 23.7114 32.4435 24.0385 32.4435C24.3651 32.4435 24.6921 32.3772 24.9994 32.2454V32.7266C24.9994 33.0682 25.0631 33.4011 25.184 33.7109C24.7991 33.8025 24.4069 33.8545 24.0099 33.8633C23.6246 33.8713 23.2427 33.8387 22.8669 33.7688C23.0039 33.4414 23.0775 33.0869 23.0775 32.7266V32.2454ZM23.9938 37.0391L24.8068 39.6366L23.9854 40.4639L23.2548 39.6498L23.9938 37.0391ZM22.7952 23.7295H25.2814C26.0013 23.7295 26.5869 24.3162 26.5869 25.0372V25.9476L23.1925 24.8556C23.0134 24.7981 22.8186 24.8146 22.6516 24.9014L21.49 25.5078V25.0372C21.49 24.3162 22.0756 23.7295 22.7952 23.7295ZM21.49 27.0942L23.0416 26.2845L26.5869 27.4249V29.0747C26.5869 29.4362 26.3954 29.7771 26.0874 29.965L24.579 30.8842C24.2454 31.087 23.8312 31.087 23.4979 30.8842L21.9895 29.965C21.6815 29.7771 21.49 29.4362 21.49 29.0747V27.0942ZM20.0284 35.6914L21.2402 35.2834C21.4669 35.208 21.6793 35.104 21.8756 34.9733C22.2598 35.0886 22.6512 35.171 23.0475 35.219L21.7961 39.6395C21.7302 39.8717 21.7881 40.1211 21.9492 40.3005L22.8365 41.2893H17.9561V38.5782C17.9561 37.2694 18.7888 36.1089 20.0284 35.6914ZM5.60815 30.8354C5.0083 30.8354 4.46887 30.574 4.0968 30.1591L5.1427 29.4255C5.50195 29.1732 5.71655 28.7605 5.71655 28.3218V27.6743L7.6377 26.9141V28.807C7.6377 29.9254 6.72729 30.8354 5.60815 30.8354ZM4.84863 24.9351H6.36768C6.80273 24.9351 7.18726 25.1552 7.41614 25.4895L5.16284 26.3812C4.64502 26.5859 4.3103 27.0781 4.3103 27.6348V28.2917L3.57861 28.8052V26.2043C3.57861 25.5045 4.14807 24.9351 4.84863 24.9351ZM5.60815 32.2417C5.77734 32.2417 5.94397 32.2289 6.10657 32.2051L6.18347 32.9686C5.67151 32.8588 5.14233 32.8562 4.62744 32.9609L4.7406 32.1307C5.01782 32.2029 5.30859 32.2417 5.60815 32.2417ZM3.30615 35.5782C3.32739 35.2908 3.48743 35.03 3.73462 34.8806L4.13452 34.6389C4.9519 34.1449 5.97107 34.1775 6.75293 34.7155L11.1566 39.9878C11.2903 40.1478 11.488 40.2401 11.6964 40.2401H11.6986L14.885 40.2288C15.4277 40.3782 15.8452 40.7795 16.0232 41.2893H10.5798L6.88879 37.4141C6.62109 37.1328 6.17615 37.1222 5.8949 37.3899C5.61365 37.6576 5.60303 38.1029 5.87073 38.3842L6.2937 38.8284V41.2893H2.86853L3.30615 35.5782ZM45.2054 43.7806C45.2054 45.3315 43.9431 46.5935 42.3915 46.5935H5.62683C4.0752 46.5935 2.8125 45.3315 2.8125 43.7806V42.6956H6.2937V42.8677C6.2937 43.5935 6.56763 44.2845 7.06458 44.8141C7.203 44.9613 7.38977 45.0356 7.57727 45.0356C7.74976 45.0356 7.92261 44.9727 8.05847 44.8452C8.34155 44.5793 8.35547 44.1344 8.0896 43.851C7.83838 43.5836 7.69995 43.2346 7.69995 42.8677V40.3049L9.58301 42.2817V42.6187C9.58301 44.1333 10.8157 45.3656 12.3311 45.3656H15.2926C15.6808 45.3656 15.9957 45.051 15.9957 44.6625C15.9957 44.2743 15.6808 43.9594 15.2926 43.9594H12.3311C11.6199 43.9594 11.0365 43.4034 10.9926 42.7036H16.8215C16.856 42.7036 16.8896 42.7003 16.923 42.6956H31.0953C31.1283 42.7003 31.1624 42.7036 31.1968 42.7036H37.1689C37.1246 43.4034 36.5416 43.9594 35.8304 43.9594H18.3025C17.9143 43.9594 17.5994 44.2743 17.5994 44.6625C17.5994 45.051 17.9143 45.3656 18.3025 45.3656H35.8304C37.3455 45.3656 38.5781 44.1333 38.5781 42.6187V42.1616C38.5781 42.1521 38.577 42.1426 38.5767 42.1331L40.318 40.3049V42.8677C40.318 43.2346 40.1799 43.5836 39.9287 43.851C39.6628 44.1344 39.6768 44.5793 39.9598 44.8452C40.0953 44.9727 40.2686 45.0356 40.441 45.0356C40.6285 45.0356 40.8153 44.9613 40.9537 44.8141C41.4507 44.2845 41.7242 43.5935 41.7242 42.8677V42.6956H45.2054V43.7806Z" fill="#0B1B7E"/>
<path d="M4.17725 20.9019H4.29517C4.78735 21.9452 5.83801 22.6143 6.9967 22.6143C8.15649 22.6143 9.20679 21.9448 9.69751 20.9019H19.7914C20.6677 20.9019 21.4122 20.3364 21.6847 19.552C22.2823 19.9874 23.0126 20.2372 23.7838 20.2372C24.7345 20.2372 25.6229 19.8585 26.277 19.2184C26.4319 20.1713 27.2581 20.9019 28.2542 20.9019H38.3484C38.8402 21.9448 39.8905 22.6143 41.0488 22.6143C42.2079 22.6143 43.2585 21.9448 43.7504 20.9019H43.8683C44.9739 20.9019 45.8737 20.0024 45.8737 18.8969V7.8468C45.8737 6.74121 44.9739 5.8418 43.8683 5.8418H38.1689C37.7804 5.8418 37.4658 6.15674 37.4658 6.54492C37.4658 6.93347 37.7804 7.24805 38.1689 7.24805H43.8683C44.1986 7.24805 44.4674 7.51685 44.4674 7.8468V18.8972C44.4674 19.2272 44.1986 19.4956 43.8683 19.4956H43.6658C43.1582 19.4956 42.7001 19.7948 42.4983 20.2584C42.2471 20.8352 41.678 21.208 41.0488 21.208C40.42 21.208 39.8517 20.8352 39.6001 20.2581C39.3983 19.7952 38.9402 19.4956 38.4326 19.4956H28.2542C27.9238 19.4956 27.655 19.2272 27.655 18.8972V18.0901H33.573C34.8613 18.0901 35.9094 17.042 35.9094 15.754V2.33606C35.9098 1.0481 34.8613 0 33.573 0H13.9946C12.7059 0 11.6578 1.0481 11.6578 2.33606V5.8418H4.17725C3.07166 5.8418 2.17188 6.74121 2.17188 7.8468V8.84473C2.17188 9.23291 2.48682 9.54785 2.875 9.54785C3.26355 9.54785 3.57812 9.23291 3.57812 8.84473V7.8468C3.57812 7.51685 3.84692 7.24805 4.17725 7.24805H11.6578V15.754C11.6578 17.042 12.7059 18.0901 13.9946 18.0901H20.3905V18.8972C20.3905 19.2272 20.1217 19.4956 19.7914 19.4956H9.61365C9.10571 19.4956 8.64722 19.7948 8.44507 20.2588C8.19458 20.8352 7.62622 21.208 6.9967 21.208C6.36755 21.208 5.79846 20.8352 5.54724 20.2581C5.34546 19.7952 4.88733 19.4956 4.37976 19.4956H4.17725C3.84692 19.4956 3.57812 19.2272 3.57812 18.8972V11.8059C3.57812 11.4174 3.26355 11.1028 2.875 11.1028C2.48682 11.1028 2.17188 11.4174 2.17188 11.8059V18.8972C2.17188 20.0024 3.07166 20.9019 4.17725 20.9019ZM13.0641 15.754V2.33606C13.0641 1.82336 13.4816 1.40625 13.9946 1.40625H33.573C34.0861 1.40625 34.5032 1.82336 34.5032 2.33606V15.754C34.5032 16.2667 34.0861 16.6838 33.573 16.6838H27.0651C26.9834 16.6838 26.9028 16.6915 26.8241 16.7051C26.8175 16.7062 26.8105 16.7073 26.804 16.7087C26.3466 16.7937 25.9536 17.098 25.7643 17.5331C25.4215 18.3215 24.644 18.8309 23.7838 18.8309C22.924 18.8309 22.1465 18.3215 21.8033 17.5331C21.5789 17.0171 21.0684 16.6838 20.5026 16.6838H13.9946C13.4816 16.6838 13.0641 16.2667 13.0641 15.754Z" fill="#0B1B7E"/>
<path d="M15.9893 5.41455H31.1965C31.5847 5.41455 31.8997 5.09998 31.8997 4.71143C31.8997 4.32288 31.5847 4.0083 31.1965 4.0083H15.9893C15.6011 4.0083 15.2861 4.32288 15.2861 4.71143C15.2861 5.09998 15.6011 5.41455 15.9893 5.41455Z" fill="#0B1B7E"/>
<path d="M15.9893 9.02686H31.1965C31.5847 9.02686 31.8997 8.71228 31.8997 8.32373C31.8997 7.93555 31.5847 7.62061 31.1965 7.62061H15.9893C15.6011 7.62061 15.2861 7.93555 15.2861 8.32373C15.2861 8.71228 15.6011 9.02686 15.9893 9.02686Z" fill="#0B1B7E"/>
<path d="M24.8992 11.937C24.8992 11.5485 24.5842 11.2339 24.196 11.2339H15.9893C15.6011 11.2339 15.2861 11.5485 15.2861 11.937C15.2861 12.3252 15.6011 12.6401 15.9893 12.6401H24.196C24.5842 12.6401 24.8992 12.3252 24.8992 11.937Z" fill="#0B1B7E"/>
</g>
</svg>
