<svg width="48" height="48" viewBox="0 0 48 48" fill="none" xmlns="http://www.w3.org/2000/svg">
<path d="M41.4889 40.2032L41.4771 40.2015V37.6119C41.4771 37.2221 41.1613 36.9064 40.7716 36.9064C40.3819 36.9064 40.0661 37.2221 40.0661 37.6119V39.9965L38.8811 39.8244L37.7148 37.4612C37.2872 36.5943 36.0487 36.5931 35.6201 37.4611L35.4354 37.8354V35.3808C35.4354 34.9911 35.1196 34.6753 34.7299 34.6753C34.3402 34.6753 34.0244 34.9911 34.0244 35.3808V39.8866L31.8459 40.2031C30.8886 40.3422 30.5057 41.5196 31.1985 42.1954L32.1179 43.0915H28.55C28.8437 42.805 28.6534 42.9907 29.4693 42.1954C29.4693 42.1953 29.4694 42.1953 29.4694 42.1952C30.1601 41.5243 29.7826 40.3427 28.822 40.2031L27.2692 39.9775L26.0989 33.0631L26.7576 32.0716L27.1241 32.332C27.7618 32.785 28.6565 32.5634 29.0073 31.8608C29.0073 31.8607 29.0073 31.8607 29.0073 31.8607L31.4335 26.9982L36.9568 29.1375C37.1516 29.2209 40.066 30.5274 40.066 33.9898V34.3198C40.066 34.7096 40.3817 35.0253 40.7714 35.0253C41.1611 35.0253 41.4769 34.7096 41.4769 34.3198V33.9898C41.4769 29.5217 37.6526 27.8981 37.4898 27.8311C37.4854 27.8292 37.4809 27.8275 37.4764 27.8257L28.3289 24.2831V22.0802C29.7881 20.9546 30.7969 19.2741 31.0377 17.357C32.7945 17.2567 34.0929 15.8426 34.0929 14.1686C34.0929 13.3922 33.81 12.6511 33.3068 12.0764V9.23205C33.3068 4.73627 30.1067 0.859051 25.6976 0.013051C25.3158 -0.0605428 24.9454 0.190145 24.872 0.572926C24.7985 0.955426 25.0492 1.32518 25.4319 1.39858C29.1774 2.11746 31.896 5.41183 31.896 9.23205V11.142C31.6398 11.0575 31.3716 11.0051 31.0955 10.9848C31.0955 10.2171 31.1594 10.4224 28.7115 7.79149L28.7114 7.7914C28.2801 7.3279 27.5825 7.24296 27.0527 7.58918C24.4421 9.29458 21.2701 10.168 18.3201 10.0005C17.8191 9.97202 17.5655 9.9919 17.1578 10.3316C16.9615 10.5137 16.8268 10.7586 16.7726 11.0056C16.5332 11.0303 16.2077 11.1006 15.9416 11.1977V9.23186C15.9416 5.41164 18.6601 2.11718 22.4057 1.39839C22.7883 1.32499 23.039 0.955332 22.9656 0.572738C22.8923 0.190238 22.5222 -0.0609178 22.1399 0.0128635C17.7309 0.858957 14.5308 4.73608 14.5308 9.23186V12.1502C14.0218 12.7196 13.7449 13.4228 13.7449 14.1686C13.7449 15.8401 15.0401 17.2563 16.7993 17.3568C17.0366 19.2656 18.0431 21.0254 19.6622 22.1912V24.2833L10.5248 27.8258C10.5204 27.8276 10.516 27.8292 10.5116 27.8311C10.3487 27.8981 6.52446 29.5217 6.52446 33.9898V40.2014L6.51265 40.2031C6.06949 40.2675 5.70818 40.5721 5.5698 40.9979C5.43133 41.4238 5.54458 41.8826 5.8653 42.1953L7.7524 44.0347L7.3068 46.6321C7.23115 47.0734 7.40927 47.5112 7.77152 47.7745C8.13368 48.0376 8.60487 48.0717 9.00143 47.8632L11.3341 46.637L13.6667 47.8632C14.0629 48.0715 14.5343 48.0375 14.8966 47.7745C15.2591 47.5112 15.437 47.0735 15.3612 46.632L14.9959 44.5023H20.3389L19.9736 46.6321C19.8102 47.5856 20.8117 48.3136 21.6683 47.8632L24.001 46.637L26.3336 47.8632C26.7297 48.0715 27.2011 48.0375 27.5635 47.7745C27.9259 47.5112 28.1038 47.0735 28.0281 46.632L27.6627 44.5023H33.0057L32.6404 46.6321C32.4771 47.5856 33.4785 48.3136 34.3351 47.8632L36.6678 46.637L39.0004 47.8632C39.8566 48.3135 40.8585 47.5856 40.695 46.632L40.2495 44.0347L42.1367 42.1952C42.8291 41.5199 42.4462 40.3423 41.4889 40.2032ZM31.0954 12.4027C32.0418 12.5247 32.682 13.295 32.682 14.1686C32.682 15.0485 32.0376 15.8141 31.0954 15.9351V12.4027ZM16.7422 15.935C15.8015 15.8142 15.1556 15.0508 15.1556 14.1685C15.1556 13.2997 15.8929 12.6026 16.7422 12.4365V15.935ZM30.1122 26.4867L27.8145 31.0918C27.5357 30.8938 25.257 29.2753 25.0169 29.1048L27.8483 25.6101L30.1122 26.4867ZM24.9786 32.2001H23.0173L22.389 31.2545L23.9979 30.1119L25.6068 31.2545L24.9786 32.2001ZM25.6027 38.5853L25.048 37.4612C24.6194 36.5925 23.3812 36.5937 22.9532 37.4611L22.3908 38.6007L23.2353 33.611H24.7609L25.6027 38.5853ZM21.0729 24.5105V22.9796C21.9731 23.3543 22.9761 23.5538 24.0112 23.5538C25.0251 23.5538 26.032 23.33 26.9182 22.929V24.5165L23.9981 28.1211L21.0729 24.5105ZM18.1531 16.4696C18.1531 15.9298 18.1531 11.9432 18.1531 11.4044C21.395 11.6077 24.8765 10.6706 27.7437 8.82246C28.8735 10.0363 29.501 10.6877 29.6846 10.918C29.6846 11.5256 29.6846 15.787 29.6846 16.4696C29.6846 19.5934 27.1377 22.1427 24.0113 22.1427C20.557 22.1428 18.1531 19.4776 18.1531 16.4696ZM20.1441 25.6115L22.976 29.1071C22.2849 29.5979 20.3879 30.9454 20.1817 31.0918L17.8839 26.4867L20.1441 25.6115ZM13.8392 43.1135C13.5691 43.377 13.4381 43.7669 13.5034 44.1473L13.8872 46.3854L11.8772 45.3287C11.537 45.1498 11.1306 45.1498 10.7902 45.3287L8.78027 46.3855L9.16418 44.1474C9.22905 43.7684 9.10352 43.3819 8.82827 43.1136L7.20218 41.5286L9.44983 41.2021C9.82736 41.147 10.1575 40.9103 10.3289 40.5632L11.3338 38.5271C12.3962 40.6796 12.3481 40.5935 12.4099 40.6876C12.592 40.9649 12.8853 41.1537 13.2182 41.2023L15.4654 41.5288L13.8392 43.1135ZM15.8831 43.0916L16.8026 42.1955C16.8026 42.1954 16.8026 42.1954 16.8026 42.1953C17.4958 41.5193 17.1126 40.3423 16.1551 40.2032L13.9768 39.8867V35.3808C13.9768 34.9911 13.6611 34.6753 13.2714 34.6753C12.8816 34.6753 12.5659 34.9911 12.5659 35.3808V37.8357L12.381 37.4611C11.9558 36.5991 10.717 36.5882 10.2863 37.461L9.12002 39.8243L7.93493 39.9964V33.9898C7.93493 30.5172 10.8666 29.2132 11.0433 29.1378L16.5623 26.9982L18.9886 31.861C19.3384 32.5617 20.232 32.7865 20.8718 32.3321L21.2383 32.0718L21.8971 33.0633L20.7267 39.9784L19.1792 40.2033C18.2199 40.3425 17.8406 41.5214 18.5318 42.1956L19.4512 43.0916H15.8831ZM26.5061 43.1135C26.2354 43.3776 26.1051 43.7675 26.1702 44.1473L26.5541 46.3854L24.5441 45.3287C24.2038 45.1498 23.7974 45.1498 23.457 45.3287L21.4471 46.3854L21.831 44.1473C21.898 43.7566 21.7572 43.369 21.4951 43.1135L19.869 41.5286L22.1167 41.202C22.4831 41.1486 22.8231 40.9125 22.9958 40.5631L24.0007 38.527L25.0057 40.5633C25.1825 40.9212 25.5258 41.1497 25.8851 41.202L28.1323 41.5286L26.5061 43.1135ZM39.1729 43.1135C38.8976 43.3819 38.772 43.7683 38.8371 44.1473L39.2209 46.3854L37.2109 45.3287C36.8707 45.1498 36.4643 45.1498 36.1239 45.3287L34.114 46.3854L34.4979 44.1473C34.5634 43.7649 34.4308 43.3754 34.162 43.1135L32.5359 41.5286L34.7835 41.202C35.1637 41.1465 35.4923 40.9078 35.6626 40.5631L36.6675 38.527L37.6725 40.5633C37.6938 40.6063 37.7176 40.6478 37.7436 40.6873C37.9257 40.9646 38.219 41.1535 38.5519 41.202L40.7991 41.5286L39.1729 43.1135Z" fill="#0B1B7E"/>
</svg>
