<svg width="48" height="48" viewBox="0 0 48 48" fill="none" xmlns="http://www.w3.org/2000/svg">
<path d="M43.4647 31.1265C44.4037 30.3007 45 29.0955 45 27.75C45 25.2682 42.9818 23.25 40.5 23.25C38.0182 23.25 36 25.2682 36 27.75C36 29.4323 36.9293 30.9 38.3003 31.6718C36.813 32.6257 35.7713 34.2352 35.6175 36.096L35.3153 39.75H31.5C30.2595 39.75 29.25 40.7595 29.25 42C29.25 43.2405 30.2595 44.25 31.5 44.25H34.5V47.25H47.25V36.5768C47.25 34.083 45.6727 31.956 43.4647 31.1265ZM40.5 24.75C42.1545 24.75 43.5 26.0955 43.5 27.75C43.5 29.4045 42.1545 30.75 40.5 30.75C38.8455 30.75 37.5 29.4045 37.5 27.75C37.5 26.0955 38.8455 24.75 40.5 24.75ZM45.75 45.75H36V44.25H36.2603C38.2133 44.25 39.8182 42.7837 39.9945 40.8397L40.4962 35.3182L39.0022 35.1825L38.5005 40.704C38.3947 41.8702 37.4318 42.75 36.2603 42.75H31.5C31.0868 42.75 30.75 42.4132 30.75 42C30.75 41.5868 31.0868 41.25 31.5 41.25H35.3153C36.096 41.25 36.738 40.6635 36.8092 39.8797L37.1123 36.2197C37.2968 33.9937 39.1897 32.25 41.4232 32.25C43.809 32.25 45.75 34.191 45.75 36.5768V45.75Z" fill="#0B1B7E"/>
<path d="M16.5 39.75L12.6855 39.756L12.3825 36.096C12.228 34.2352 11.1862 32.6257 9.69975 31.6718C11.0707 30.9 12 29.4323 12 27.75C12 25.2682 9.98175 23.25 7.5 23.25C5.01825 23.25 3 25.2682 3 27.75C3 29.0955 3.59625 30.3007 4.53525 31.1265C2.32725 31.956 0.75 34.083 0.75 36.5768V47.25H13.5V44.25H16.5C17.7405 44.25 18.75 43.2405 18.75 42C18.75 40.7595 17.7405 39.75 16.5 39.75ZM7.5 24.75C9.1545 24.75 10.5 26.0955 10.5 27.75C10.5 29.4045 9.1545 30.75 7.5 30.75C5.8455 30.75 4.5 29.4045 4.5 27.75C4.5 26.0955 5.8455 24.75 7.5 24.75ZM16.5 42.75H11.7397C10.5682 42.75 9.60525 41.8702 9.4995 40.704L8.99775 35.1825L7.50375 35.3182L8.0055 40.8397C8.18175 42.7837 9.78675 44.25 11.7397 44.25H12V45.75H2.25V36.5768C2.25 34.191 4.191 32.25 6.57675 32.25C8.81025 32.25 10.704 33.9937 10.8885 36.2197L11.1915 39.8857C11.262 40.6635 11.904 41.25 12.6847 41.25H16.5C16.9132 41.25 17.25 41.5868 17.25 42C17.25 42.4132 16.9132 42.75 16.5 42.75Z" fill="#0B1B7E"/>
<path d="M30.8167 27.8745C30.8948 27.7043 30.9667 27.5332 31.0312 27.3607L33 26.8223V22.6777L31.0312 22.1392C30.9667 21.9675 30.8955 21.7957 30.8167 21.6255L31.8293 19.851L30.639 18.6608C30.705 18.4508 30.75 18.2318 30.75 18C30.75 17.1495 30.27 16.416 29.5718 16.0343L31.4025 12.3727C31.812 11.5522 32.0767 10.6597 32.1885 9.75H33.3255L36 14.208L38.4743 10.083C38.598 9.8775 38.8237 9.75 39.063 9.75C39.4417 9.75 39.75 10.0583 39.75 10.437V15.75H41.25V10.437C41.25 9.231 40.269 8.25 39.063 8.25C38.2987 8.25 37.581 8.6565 37.188 9.312L36 11.292L34.1745 8.25H32.223C31.9478 4.0695 28.4678 0.75 24.219 0.75H23.781C19.5323 0.75 16.0522 4.0695 15.777 8.25H13.8255L12 11.292L10.812 9.312C10.419 8.6565 9.7005 8.25 8.937 8.25C7.731 8.25 6.75 9.231 6.75 10.437V15.75H8.25V10.437C8.25 10.0583 8.55825 9.75 8.937 9.75C9.177 9.75 9.40275 9.8775 9.52575 10.0837L12 14.208L14.6745 9.75H15.8115C15.9233 10.6605 16.188 11.553 16.5975 12.3727L18.4282 16.0343C17.73 16.416 17.25 17.1495 17.25 18C17.25 18.2318 17.295 18.4508 17.361 18.6615L16.1708 19.8517L17.1832 21.6262C17.1052 21.7965 17.0332 21.9675 16.9688 22.14L15 22.6777V26.8223L16.9688 27.36C17.0332 27.5325 17.1052 27.7035 17.1832 27.8738L16.1708 29.6482L19.1017 32.5793L20.8762 31.5667C21.0465 31.6448 21.2175 31.7167 21.39 31.7812L21.9277 33.75H26.0723L26.61 31.7812C26.7825 31.7167 26.9535 31.6448 27.1238 31.5667L28.8982 32.5793L31.8293 29.6482L30.8167 27.8745ZM27 24.75C27 26.4045 25.6545 27.75 24 27.75C22.3455 27.75 21 26.4045 21 24.75C21 24.4552 21.0435 24.1658 21.126 23.8883C21.9525 24.4312 22.9395 24.75 24 24.75C25.0605 24.75 26.0475 24.4312 26.8733 23.8883C26.9565 24.1658 27 24.4552 27 24.75ZM19.5 17.25H28.5C28.9132 17.25 29.25 17.5868 29.25 18C29.25 18.4132 28.9132 18.75 28.5 18.75H19.5C19.0868 18.75 18.75 18.4132 18.75 18C18.75 17.5868 19.0868 17.25 19.5 17.25ZM24 23.25C22.1895 23.25 20.6745 21.9592 20.3258 20.25H27.6742C27.3255 21.9592 25.8105 23.25 24 23.25ZM17.25 8.781C17.25 5.1795 20.1795 2.25 23.781 2.25H24.219C27.8205 2.25 30.75 5.1795 30.75 8.781C30.75 9.78975 30.5115 10.7992 30.0608 11.7022L28.0365 15.75H24.75V11.8935C26.04 11.5582 27 10.3935 27 9C27 7.3455 25.6545 6 24 6C22.3455 6 21 7.3455 21 9C21 10.3935 21.96 11.5582 23.25 11.8935V15.75H19.9635L17.9393 11.7022C17.4885 10.7992 17.25 9.78975 17.25 8.781ZM24 10.5C23.1728 10.5 22.5 9.82725 22.5 9C22.5 8.17275 23.1728 7.5 24 7.5C24.8272 7.5 25.5 8.17275 25.5 9C25.5 9.82725 24.8272 10.5 24 10.5ZM28.647 30.7095L27.1628 29.8628L26.7982 30.0548C26.4615 30.2325 26.1158 30.3773 25.77 30.4837L25.3762 30.6052L24.9277 32.25H23.0723L22.6222 30.6052L22.2285 30.4837C21.8835 30.3773 21.537 30.2333 21.1995 30.0548L20.8358 29.8628L19.3522 30.7087L18.0397 29.397L18.8865 27.9128L18.6945 27.5482C18.5168 27.2115 18.372 26.8658 18.2655 26.52L18.144 26.1262L16.5 25.6777V23.8223L18.1448 23.3722L18.2662 22.9785C18.3727 22.6335 18.5168 22.287 18.6952 21.9495L18.8873 21.5858L18.0413 20.1022L18.2662 19.8773C18.4267 19.983 18.6053 20.0618 18.7913 20.124C18.912 21.1395 19.3215 22.0672 19.938 22.8202C19.6522 23.421 19.5 24.0772 19.5 24.75C19.5 27.2318 21.5182 29.25 24 29.25C26.4818 29.25 28.5 27.2318 28.5 24.75C28.5 24.0765 28.3477 23.421 28.062 22.821C28.6793 22.068 29.088 21.1395 29.2095 20.1248C29.3955 20.0625 29.5732 19.9837 29.7345 19.878L29.9595 20.103L29.1135 21.5865L29.3055 21.9503C29.4833 22.2878 29.628 22.6335 29.7345 22.9792L29.856 23.373L31.5007 23.823V25.6785L29.856 26.1278L29.7345 26.5215C29.628 26.8665 29.484 27.2123 29.3055 27.5498L29.1135 27.9143L29.9602 29.3985L28.647 30.7095Z" fill="#0B1B7E"/>
<path d="M39.75 20.25H41.25V21.75H39.75V20.25Z" fill="#0B1B7E"/>
<path d="M39.75 17.25H41.25V18.75H39.75V17.25Z" fill="#0B1B7E"/>
<path d="M6.75 20.25H8.25V21.75H6.75V20.25Z" fill="#0B1B7E"/>
<path d="M6.75 17.25H8.25V18.75H6.75V17.25Z" fill="#0B1B7E"/>
</svg>
