<svg width="48" height="40" viewBox="0 0 48 40" fill="none" xmlns="http://www.w3.org/2000/svg">
<path d="M42.375 3.75446V1.71878C42.375 1.44446 42.2549 1.18393 42.0462 1.00581C41.8375 0.827684 41.5614 0.749871 41.2904 0.792903L29.394 2.68215C27.0301 3.07609 25.0853 4.52209 23.9998 6.49525C22.9138 4.522 20.9674 3.07562 18.5989 2.68103L6.7095 0.792903C6.43847 0.749778 6.16237 0.82759 5.95369 1.00581C5.74519 1.18393 5.625 1.44446 5.625 1.71878V6.40628H0.9375C0.419719 6.40628 0 6.82609 0 7.34378V35.4688C0 35.9865 0.419719 36.4063 0.9375 36.4063H17.2097C19.5244 36.4063 21.7005 37.3076 23.3371 38.9442C23.5053 39.1122 23.7459 39.2188 24 39.2188C24.235 39.2188 24.4828 39.1241 24.6629 38.9442C26.2995 37.3076 28.4755 36.4063 30.7903 36.4063H34.4598C34.9775 36.4063 35.3973 35.9865 35.3973 35.4688C35.3973 34.9511 34.9775 34.5313 34.4598 34.5313H30.7903C28.8646 34.5313 27.0187 35.0459 25.4067 36.007C26.1544 34.2785 27.7342 32.9846 29.6951 32.6578L41.5845 30.7697C42.0397 30.6974 42.375 30.3047 42.375 29.8438V14.1802C43.8237 12.7316 44.6768 11.8787 46.125 10.4303V34.5313H42.4153C41.8976 34.5313 41.4778 34.9511 41.4778 35.4688C41.4778 35.9865 41.8976 36.4063 42.4153 36.4063H47.0625C47.5802 36.4063 48 35.9865 48 35.4688V7.00253C48 5.99996 47.6096 5.05815 46.9016 4.35156C45.6539 3.10271 43.7827 2.93828 42.375 3.75446ZM36.2241 17.6794L33.5731 15.0285L40.2731 8.32928L42.9238 10.98L36.2241 17.6794ZM32.5402 16.6473L34.6051 18.7123L30.8139 20.4385L32.5402 16.6473ZM7.5 2.81687L18.2977 4.53165C21.0586 4.99168 23.0625 7.35718 23.0625 10.1563V33.2809C21.9431 32.0052 20.3915 31.1046 18.5989 30.806L7.5 29.0434V2.81687ZM1.875 34.5313V8.28128H5.625V29.8438C5.625 30.3047 5.96016 30.6974 6.4155 30.7697L18.2978 32.6567C20.2638 32.9842 21.8451 34.2784 22.5932 36.0069C20.9812 35.0459 19.1353 34.5313 17.2097 34.5313H1.875ZM40.5 29.0434L29.394 30.8072C27.6048 31.1054 26.056 32.0069 24.9375 33.2826V10.1563C24.9375 7.35718 26.9413 4.99168 29.6951 4.53278L40.5 2.81687V5.44984L31.5852 14.3646C31.5849 14.3649 31.5846 14.3652 31.5843 14.3655C31.5119 14.4378 31.4399 14.5392 31.3941 14.64L28.0697 21.9412C27.9076 22.2971 27.9834 22.7162 28.2599 22.9926C28.5339 23.2666 28.9524 23.3463 29.3113 23.1828L36.6126 19.8585C36.715 19.8119 36.8152 19.7401 36.8871 19.6682C36.8873 19.668 36.8876 19.6676 36.8879 19.6673L40.5 16.0552V29.0434ZM45.5754 8.32825L44.2496 9.65406L41.599 7.00346C43.4159 5.18528 42.7893 5.81237 42.9248 5.67671C43.6517 4.94931 44.8377 4.93853 45.5762 5.67765C46.308 6.40815 46.3093 7.5955 45.5754 8.32825Z" fill="#0B1B7E"/>
<path d="M38.4375 35C38.9553 35 39.375 34.5803 39.375 34.0625C39.375 33.5447 38.9553 33.125 38.4375 33.125C37.9197 33.125 37.5 33.5447 37.5 34.0625C37.5 34.5803 37.9197 35 38.4375 35Z" fill="#0B1B7E"/>
</svg>
