<svg width="48" height="48" viewBox="0 0 48 48" fill="none" xmlns="http://www.w3.org/2000/svg">
<g opacity="0.85">
<path d="M45.75 34.5H44.6887C44.5137 33.883 44.2668 33.2886 43.953 32.7292L44.703 31.9792C44.8436 31.8386 44.9226 31.6479 44.9226 31.449C44.9226 31.2501 44.8436 31.0594 44.703 30.9187L42.582 28.7977C42.4414 28.6571 42.2506 28.5782 42.0518 28.5782C41.8529 28.5782 41.6621 28.6571 41.5215 28.7977L40.7715 29.5477C40.2119 29.2337 39.6173 28.9865 39 28.8113V27.75C39 27.5511 38.921 27.3603 38.7803 27.2197C38.6397 27.079 38.4489 27 38.25 27H35.25C35.0511 27 34.8603 27.079 34.7197 27.2197C34.579 27.3603 34.5 27.5511 34.5 27.75V28.8113C33.883 28.9863 33.2886 29.2332 32.7292 29.547L31.9792 28.797C31.8386 28.6564 31.6479 28.5774 31.449 28.5774C31.2501 28.5774 31.0594 28.6564 30.9187 28.797L28.7977 30.918C28.6571 31.0586 28.5782 31.2494 28.5782 31.4482C28.5782 31.6471 28.6571 31.8379 28.7977 31.9785L29.5477 32.7285C29.2337 33.2881 28.9865 33.8827 28.8113 34.5H27.75C27.5511 34.5 27.3603 34.579 27.2197 34.7197C27.079 34.8603 27 35.0511 27 35.25V38.25C27 38.4489 27.079 38.6397 27.2197 38.7803C27.3603 38.921 27.5511 39 27.75 39H28.8113C28.9863 39.617 29.2332 40.2114 29.547 40.7708L28.797 41.5208C28.6564 41.6614 28.5774 41.8521 28.5774 42.051C28.5774 42.2499 28.6564 42.4406 28.797 42.5813L30.918 44.7023C31.0586 44.8429 31.2494 44.9218 31.4482 44.9218C31.6471 44.9218 31.8379 44.8429 31.9785 44.7023L32.7285 43.9523C33.2881 44.2663 33.8827 44.5135 34.5 44.6887V45.75C34.5 45.9489 34.579 46.1397 34.7197 46.2803C34.8603 46.421 35.0511 46.5 35.25 46.5H38.25C38.4489 46.5 38.6397 46.421 38.7803 46.2803C38.921 46.1397 39 45.9489 39 45.75V44.6887C39.617 44.5137 40.2114 44.2668 40.7708 43.953L41.5208 44.703C41.6614 44.8436 41.8521 44.9226 42.051 44.9226C42.2499 44.9226 42.4406 44.8436 42.5813 44.703L44.7023 42.582C44.8429 42.4414 44.9218 42.2506 44.9218 42.0518C44.9218 41.8529 44.8429 41.6621 44.7023 41.5215L43.9523 40.7715C44.2663 40.2119 44.5135 39.6173 44.6887 39H45.75C45.9489 39 46.1397 38.921 46.2803 38.7803C46.421 38.6397 46.5 38.4489 46.5 38.25V35.25C46.5 35.0511 46.421 34.8603 46.2803 34.7197C46.1397 34.579 45.9489 34.5 45.75 34.5ZM45 37.5H44.1C43.9271 37.5 43.7595 37.5597 43.6256 37.669C43.4916 37.7783 43.3996 37.9306 43.365 38.1C43.1932 38.9457 42.859 39.75 42.381 40.4685C42.2853 40.6127 42.2424 40.7856 42.2596 40.9579C42.2768 41.1301 42.3531 41.2911 42.4755 41.4135L43.1145 42.0525L42.054 43.113L41.415 42.474C41.2927 42.3515 41.1317 42.2751 40.9595 42.2577C40.7873 42.2404 40.6143 42.2831 40.47 42.3788C39.7515 42.8579 38.9465 43.1923 38.1 43.3635C37.9305 43.3981 37.7781 43.4903 37.6688 43.6244C37.5594 43.7584 37.4998 43.9262 37.5 44.0993V45H36V44.1C36.0002 43.927 35.9406 43.7592 35.8312 43.6251C35.7219 43.491 35.5695 43.3989 35.4 43.3643C34.5541 43.1931 33.7496 42.8589 33.0315 42.3802C32.8872 42.2846 32.7142 42.2419 32.542 42.2592C32.3698 42.2766 32.2088 42.353 32.0865 42.4755L31.4475 43.1145L30.387 42.054L31.026 41.415C31.1484 41.2926 31.2247 41.1316 31.2419 40.9594C31.2591 40.7871 31.2162 40.6142 31.1205 40.47C30.642 39.7511 30.3076 38.9463 30.1357 38.1C30.1012 37.9306 30.0091 37.7783 29.8752 37.669C29.7412 37.5597 29.5736 37.5 29.4008 37.5H28.5V36H29.4C29.5729 36 29.7405 35.9403 29.8744 35.831C30.0084 35.7217 30.1004 35.5694 30.135 35.4C30.3068 34.5543 30.641 33.75 31.119 33.0315C31.2147 32.8873 31.2576 32.7144 31.2404 32.5421C31.2232 32.3699 31.1469 32.2089 31.0245 32.0865L30.3855 31.4475L31.446 30.387L32.085 31.026C32.2073 31.1485 32.3683 31.2249 32.5405 31.2423C32.7127 31.2596 32.8857 31.2169 33.03 31.1212C33.7485 30.6421 34.5535 30.3077 35.4 30.1365C35.5697 30.1019 35.7221 30.0096 35.8315 29.8754C35.9408 29.7411 36.0004 29.5732 36 29.4V28.5H37.5V29.4C37.4998 29.573 37.5594 29.7408 37.6688 29.8749C37.7781 30.009 37.9305 30.1011 38.1 30.1357C38.9459 30.3069 39.7504 30.6411 40.4685 31.1198C40.6128 31.2154 40.7858 31.2581 40.958 31.2408C41.1302 31.2234 41.2912 31.147 41.4135 31.0245L42.0525 30.3855L43.113 31.446L42.474 32.085C42.3516 32.2074 42.2753 32.3684 42.2581 32.5406C42.2409 32.7129 42.2838 32.8858 42.3795 33.03C42.858 33.7489 43.1924 34.5537 43.3643 35.4C43.3988 35.5694 43.4909 35.7217 43.6248 35.831C43.7588 35.9403 43.9264 36 44.0993 36H45V37.5Z" fill="#0B1B7E"/>
<path d="M36.75 32.25C35.86 32.25 34.99 32.5139 34.2499 33.0084C33.5099 33.5029 32.9331 34.2057 32.5925 35.0279C32.2519 35.8502 32.1628 36.755 32.3365 37.6279C32.5101 38.5008 32.9387 39.3026 33.568 39.932C34.1974 40.5613 34.9992 40.9899 35.8721 41.1635C36.745 41.3372 37.6498 41.2481 38.4721 40.9075C39.2943 40.5669 39.9971 39.9901 40.4916 39.2501C40.9861 38.51 41.25 37.64 41.25 36.75C41.2488 35.5569 40.7743 34.413 39.9307 33.5693C39.087 32.7257 37.9431 32.2512 36.75 32.25ZM36.75 39.75C36.1567 39.75 35.5766 39.5741 35.0833 39.2444C34.5899 38.9148 34.2054 38.4462 33.9784 37.8981C33.7513 37.3499 33.6919 36.7467 33.8076 36.1647C33.9234 35.5828 34.2091 35.0482 34.6287 34.6287C35.0482 34.2091 35.5828 33.9234 36.1647 33.8076C36.7467 33.6919 37.3499 33.7513 37.8981 33.9784C38.4462 34.2054 38.9148 34.5899 39.2444 35.0833C39.5741 35.5766 39.75 36.1567 39.75 36.75C39.75 37.5456 39.4339 38.3087 38.8713 38.8713C38.3087 39.4339 37.5457 39.75 36.75 39.75Z" fill="#0B1B7E"/>
<path d="M9 10.5C8.99917 11.1307 9.13248 11.7544 9.3911 12.3297C9.64971 12.905 10.0277 13.4187 10.5 13.8367V15.75C10.4999 15.8663 10.5269 15.9811 10.5788 16.0853L11.25 17.427V19.5C11.25 19.8978 11.408 20.2794 11.6893 20.5607C11.9706 20.842 12.3522 21 12.75 21H14.25C14.6478 21 15.0294 20.842 15.3107 20.5607C15.592 20.2794 15.75 19.8978 15.75 19.5V17.427L16.4213 16.0853C16.4732 15.9811 16.5001 15.8663 16.5 15.75V13.8367C16.9723 13.4187 17.3503 12.905 17.6089 12.3297C17.8675 11.7544 18.0008 11.1307 18 10.5C18 9.30653 17.5259 8.16193 16.682 7.31802C15.8381 6.47411 14.6935 6 13.5 6C12.3065 6 11.1619 6.47411 10.318 7.31802C9.47411 8.16193 9 9.30653 9 10.5ZM12.75 19.5V18H14.25V19.5H12.75ZM13.5 7.5C14.2957 7.5 15.0587 7.81607 15.6213 8.37868C16.1839 8.94129 16.5 9.70435 16.5 10.5C16.4998 10.9636 16.3911 11.4207 16.1828 11.8348C15.9744 12.2489 15.6721 12.6085 15.3 12.885C15.2069 12.9549 15.1313 13.0454 15.0792 13.1496C15.0271 13.2537 15 13.3686 15 13.485V15.5745L14.5365 16.5H12.4635L12 15.573V13.4835C12 13.3671 11.9729 13.2522 11.9208 13.1481C11.8688 13.0439 11.7932 12.9534 11.7 12.8835C11.3281 12.6072 11.0259 12.2478 10.8176 11.834C10.6092 11.4201 10.5005 10.9633 10.5 10.5C10.5 9.70435 10.8161 8.94129 11.3787 8.37868C11.9413 7.81607 12.7044 7.5 13.5 7.5Z" fill="#0B1B7E"/>
<path d="M12.75 1.5H14.25V4.5H12.75V1.5Z" fill="#0B1B7E"/>
<path d="M22.5 12.75H25.5V14.25H22.5V12.75Z" fill="#0B1B7E"/>
<path d="M1.5 12.75H4.5V14.25H1.5V12.75Z" fill="#0B1B7E"/>
<path d="M19.332 6.60547L21.4534 4.48415L22.514 5.54481L20.3927 7.66613L19.332 6.60547Z" fill="#0B1B7E"/>
<path d="M4.48242 21.4531L6.60374 19.3318L7.6644 20.3925L5.54308 22.5138L4.48242 21.4531Z" fill="#0B1B7E"/>
<path d="M19.3301 20.3945L20.3907 19.3339L22.5121 21.4552L21.4514 22.5159L19.3301 20.3945Z" fill="#0B1B7E"/>
<path d="M4.48438 5.54688L5.54504 4.48621L7.66636 6.60754L6.6057 7.6682L4.48438 5.54688Z" fill="#0B1B7E"/>
<path d="M3.75 32.625C3.75099 31.7302 4.10689 30.8723 4.73961 30.2396C5.37233 29.6069 6.2302 29.251 7.125 29.25H7.86C9.55412 29.248 11.1783 28.5741 12.3762 27.3762C13.5741 26.1783 14.248 24.5541 14.25 22.86V22.5H12.75V22.86C12.7484 24.1564 12.2327 25.3993 11.316 26.316C10.3993 27.2327 9.15642 27.7484 7.86 27.75H7.125C5.83207 27.75 4.59209 28.2636 3.67785 29.1779C2.76361 30.0921 2.25 31.3321 2.25 32.625C2.25 33.9179 2.76361 35.1579 3.67785 36.0721C4.59209 36.9864 5.83207 37.5 7.125 37.5H25.5V36H7.125C6.2302 35.999 5.37233 35.6431 4.73961 35.0104C4.10689 34.3777 3.75099 33.5198 3.75 32.625Z" fill="#0B1B7E"/>
</g>
</svg>
