<svg width="122" height="122" viewBox="0 0 122 122" fill="none" xmlns="http://www.w3.org/2000/svg">
<mask id="mask0_568_13687" style="mask-type:alpha" maskUnits="userSpaceOnUse" x="0" y="0" width="122" height="122">
<rect width="122" height="122" fill="#D9D9D9"/>
</mask>
<g mask="url(#mask0_568_13687)">
<path d="M21.8128 46.5396H12.0254V56.3269H21.8128V46.5396Z" fill="#2A455F"/>
<path fill-rule="evenodd" clip-rule="evenodd" d="M4.16369 49.5351C5.79491 47.9039 8.02041 46.9054 10.8402 46.5396V56.3269H1.05273C1.49547 53.4303 2.53246 51.1664 4.16369 49.5351Z" fill="#2A455F"/>
<path fill-rule="evenodd" clip-rule="evenodd" d="M18.545 76.126C16.9138 77.7572 14.7607 78.7048 12.0857 78.9688L12.0857 69.1815H21.873C21.2855 72.1799 20.1762 74.4947 18.545 76.126Z" fill="#F46B6C"/>
<path fill-rule="evenodd" clip-rule="evenodd" d="M3.89552 63.9727C2.26431 62.3415 1.31671 60.1884 1.05273 57.5134H10.84V67.3008C7.84156 66.7133 5.52674 65.6039 3.89552 63.9727Z" fill="#2A455F"/>
<path fill-rule="evenodd" clip-rule="evenodd" d="M4.32808 72.0154C5.95929 70.3842 8.11238 69.4366 10.7874 69.1726V78.9599H1C1.58751 75.9614 2.69687 73.6466 4.32808 72.0154Z" fill="#F46B6C"/>
<path d="M21.8128 57.5132H12.0254V67.3005H21.8128V57.5132Z" fill="#2A455F"/>
<path d="M31.7034 53.7874C33.4822 51.9323 35.7058 51.0048 38.3741 51.0048C39.6701 51.0048 40.8771 51.2589 41.9953 51.7671C43.1388 52.25 44.1299 52.9234 44.9685 53.7874C45.8325 54.6514 46.5059 55.6679 46.9887 56.8368C47.4715 57.9803 47.7129 59.2128 47.7129 60.5343C47.7129 61.8557 47.4715 63.1009 46.9887 64.2698C46.5313 65.4133 45.8833 66.4171 45.0447 67.2811C44.2061 68.1451 43.215 68.8313 42.0715 69.3395C40.928 69.8223 39.6955 70.0637 38.3741 70.0637C37.0272 70.0637 35.782 69.8223 34.6385 69.3395C33.5204 68.8313 32.542 68.1451 31.7034 67.2811C30.8648 66.4171 30.2041 65.4133 29.7213 64.2698C29.2639 63.1009 29.0352 61.8557 29.0352 60.5343C29.0352 57.8406 29.9246 55.5916 31.7034 53.7874ZM38.3741 54.2067C36.5952 54.2067 35.1594 54.7911 34.0667 55.9601C32.9994 57.129 32.4658 58.6538 32.4658 60.5343C32.4658 62.4147 32.9994 63.9395 34.0667 65.1084C35.1594 66.2774 36.5952 66.8618 38.3741 66.8618C40.1783 66.8618 41.6141 66.2774 42.6814 65.1084C43.7487 63.914 44.2823 62.3893 44.2823 60.5343C44.2823 58.6792 43.7487 57.1672 42.6814 55.9982C41.6141 54.8039 40.1783 54.2067 38.3741 54.2067Z" fill="#223345"/>
<path d="M53.8148 53.7874C55.5936 51.9323 57.8172 51.0048 60.4854 51.0048C61.7814 51.0048 62.9885 51.2589 64.1066 51.7671C65.2502 52.25 66.2412 52.9234 67.0798 53.7874C67.9438 54.6514 68.6173 55.6679 69.1001 56.8368C69.5829 57.9803 69.8243 59.2128 69.8243 60.5343C69.8243 61.8557 69.5829 63.1009 69.1001 64.2698C68.6427 65.4133 67.9947 66.4171 67.1561 67.2811C66.3175 68.1451 65.3264 68.8313 64.1829 69.3395C63.0393 69.8223 61.8069 70.0637 60.4854 70.0637C59.1386 70.0637 57.8934 69.8223 56.7499 69.3395C55.6317 68.8313 54.6534 68.1451 53.8148 67.2811C52.9762 66.4171 52.3155 65.4133 51.8327 64.2698C51.3752 63.1009 51.1465 61.8557 51.1465 60.5343C51.1465 57.8406 52.036 55.5916 53.8148 53.7874ZM60.4854 54.2067C58.7066 54.2067 57.2708 54.7911 56.1781 55.9601C55.1108 57.129 54.5771 58.6538 54.5771 60.5343C54.5771 62.4147 55.1108 63.9395 56.1781 65.1084C57.2708 66.2774 58.7066 66.8618 60.4854 66.8618C62.2897 66.8618 63.7255 66.2774 64.7928 65.1084C65.8601 63.914 66.3937 62.3893 66.3937 60.5343C66.3937 58.6792 65.8601 57.1672 64.7928 55.9982C63.7255 54.8039 62.2897 54.2067 60.4854 54.2067Z" fill="#223345"/>
<path d="M88.1239 43H91.5545V69.6826H82.5968C79.8269 69.6826 77.5779 68.8058 75.8499 67.0524C74.1219 65.2736 73.2579 63.0373 73.2579 60.3437C73.2579 57.7008 74.1473 55.49 75.9262 53.7111C77.7304 51.9069 79.865 51.0048 82.33 51.0048C83.9055 51.0048 85.3794 51.3859 86.7517 52.1483V55.5789C85.4811 54.6641 84.0072 54.2067 82.33 54.2067C80.8053 54.2067 79.5093 54.7784 78.442 55.922C77.4001 57.0401 76.8791 58.514 76.8791 60.3437C76.8791 62.1987 77.3747 63.6853 78.3657 64.8035C79.3822 65.9216 80.7926 66.4806 82.5968 66.4806H88.1239V43Z" fill="#223345"/>
<path d="M96.1272 62.4401V43H99.5578V62.4401C99.5578 63.355 99.6594 64.1046 99.8627 64.6891C100.091 65.2482 100.435 65.6548 100.892 65.9089C101.349 66.1376 101.794 66.2901 102.226 66.3663C102.658 66.4425 103.23 66.4806 103.941 66.4806V69.6826C101.095 69.6826 99.075 69.1362 97.8806 68.0435C96.7117 66.9508 96.1272 65.083 96.1272 62.4401Z" fill="#223345"/>
<path d="M105.829 51.3859H109.184V60.9535C109.184 63.0119 109.501 64.4477 110.137 65.2609C110.772 66.0741 111.941 66.4806 113.644 66.4806H117.646V51.3859H121V68.7677C121 71.9442 120.162 74.3329 118.485 75.9339C116.833 77.5603 114.228 78.3734 110.67 78.3734H107.926V75.1715H110.327C114.978 75.1715 117.417 73.3419 117.646 69.6826H114.444C111.115 69.6826 108.841 69.0981 107.621 67.9291C106.427 66.7602 105.829 64.3842 105.829 60.8011V51.3859Z" fill="#223345"/>
</g>
</svg>
