<svg width="114" height="74" viewBox="0 0 114 74" fill="none" xmlns="http://www.w3.org/2000/svg">
<g clip-path="url(#clip0_556_11447)">
<path d="M2.47902 73.346V68.3861C2.47902 68.0806 2.56207 67.8023 2.72817 67.5513C2.89426 67.3003 3.11764 67.0984 3.39829 66.9457C3.67894 66.7929 3.98536 66.7165 4.31756 66.7165C4.66121 66.7165 4.9705 66.7929 5.24542 66.9457C5.52034 67.0984 5.74085 67.3003 5.90695 67.5513C6.07305 67.8023 6.1561 68.0806 6.1561 68.3861V73.346H8.51011V68.3861C8.51011 68.0806 8.59316 67.8023 8.75926 67.5513C8.92536 67.3003 9.14873 67.0984 9.42938 66.9457C9.71003 66.7929 10.0165 66.7165 10.3487 66.7165C10.6923 66.7165 11.0016 66.7929 11.2765 66.9457C11.5514 67.0984 11.7719 67.3003 11.938 67.5513C12.1041 67.8023 12.1872 68.0806 12.1872 68.3861V73.346H14.5412V68.3861C14.5412 67.7314 14.3751 67.1312 14.0429 66.5855C13.7107 66.0399 13.2325 65.6061 12.6082 65.2842C11.9839 64.9622 11.2307 64.8013 10.3487 64.8013C9.92481 64.8013 9.52961 64.8477 9.16305 64.9404C8.79649 65.0332 8.45856 65.1669 8.14928 65.3415C7.83999 65.5161 7.56507 65.7234 7.32451 65.9635H7.30733C7.07823 65.7234 6.80903 65.5161 6.49975 65.3415C6.19046 65.1669 5.8554 65.0332 5.49457 64.9404C5.13373 64.8477 4.74139 64.8013 4.31756 64.8013C3.43552 64.8013 2.68234 64.9622 2.05804 65.2842C1.43374 65.6061 0.955493 66.0399 0.623296 66.5855C0.291099 67.1312 0.125 67.7314 0.125 68.3861V73.346H2.47902ZM20.5884 73.5425C21.0924 73.5425 21.5277 73.4715 21.8943 73.3297C22.2609 73.1878 22.573 72.9968 22.8307 72.7567C23.0885 72.5166 23.3033 72.2493 23.4751 71.9546H23.5095V73.346H25.8635V69.1882C25.8635 68.3807 25.6859 67.6441 25.3308 66.9784C24.9757 66.3127 24.4602 65.7834 23.7844 65.3906C23.1085 64.9977 22.278 64.8013 21.2929 64.8013C20.3192 64.8013 19.483 64.995 18.7842 65.3824C18.0855 65.7698 17.55 66.2963 17.1777 66.962C16.8054 67.6277 16.6192 68.3698 16.6192 69.1882C16.6192 69.9849 16.7825 70.7133 17.1089 71.3735C17.4354 72.0338 17.8965 72.5603 18.4921 72.9532C19.0878 73.346 19.7866 73.5425 20.5884 73.5425ZM21.2585 71.6273C20.7889 71.6273 20.3851 71.5181 20.0472 71.2999C19.7092 71.0816 19.4515 70.7842 19.2739 70.4077C19.0964 70.0313 19.0076 69.6138 19.0076 69.1555C19.0076 68.6972 19.0964 68.2852 19.2739 67.9196C19.4515 67.554 19.7092 67.2621 20.0472 67.0439C20.3851 66.8256 20.7889 66.7165 21.2585 66.7165C21.7167 66.7165 22.1119 66.8256 22.4441 67.0439C22.7763 67.2621 23.0312 67.554 23.2088 67.9196C23.3863 68.2852 23.4751 68.6972 23.4751 69.1555C23.4751 69.6138 23.3863 70.0313 23.2088 70.4077C23.0312 70.7842 22.7763 71.0816 22.4441 71.2999C22.1119 71.5181 21.7167 71.6273 21.2585 71.6273ZM30.811 73.346V68.4844C30.811 68.157 30.8998 67.8596 31.0773 67.5922C31.2549 67.3249 31.4897 67.1121 31.7818 66.9538C32.0739 66.7956 32.3918 66.7165 32.7354 66.7165C33.0905 66.7165 33.4142 66.7983 33.7063 66.962C33.9984 67.1257 34.2303 67.3467 34.4022 67.625C34.574 67.9033 34.6599 68.2115 34.6599 68.5498V73.346H37.0139V68.5498C37.0139 67.8623 36.8765 67.2348 36.6015 66.6674C36.3266 66.0999 35.9114 65.647 35.3558 65.3087C34.8002 64.9704 34.0986 64.8013 33.2509 64.8013C32.8385 64.8013 32.4204 64.8613 31.9966 64.9813C31.5728 65.1014 31.1776 65.3033 30.811 65.587V61.3965H28.457V73.346H30.811ZM43.8172 73.5425C44.7221 73.5425 45.5297 73.3488 46.2399 72.9613C46.9501 72.5739 47.5114 72.0501 47.9238 71.3899C48.3362 70.7297 48.5424 69.9903 48.5424 69.1719C48.5424 68.3534 48.3362 67.6141 47.9238 66.9538C47.5114 66.2936 46.9501 65.7698 46.2399 65.3824C45.5297 64.995 44.7221 64.8013 43.8172 64.8013C42.9122 64.8013 42.1046 64.995 41.3944 65.3824C40.6842 65.7698 40.1229 66.2936 39.7105 66.9538C39.2981 67.6141 39.0919 68.3534 39.0919 69.1719C39.0919 69.9903 39.2981 70.7297 39.7105 71.3899C40.1229 72.0501 40.6842 72.5739 41.3944 72.9613C42.1046 73.3488 42.9122 73.5425 43.8172 73.5425ZM43.8172 71.6273C43.336 71.6273 42.9208 71.5181 42.5714 71.2999C42.222 71.0816 41.9528 70.787 41.7638 70.4159C41.5748 70.0449 41.4803 69.6302 41.4803 69.1719C41.4803 68.7135 41.5748 68.2988 41.7638 67.9278C41.9528 67.5568 42.222 67.2621 42.5714 67.0439C42.9208 66.8256 43.336 66.7165 43.8172 66.7165C44.2983 66.7165 44.7135 66.8256 45.0629 67.0439C45.4123 67.2621 45.6815 67.5568 45.8705 67.9278C46.0595 68.2988 46.154 68.7135 46.154 69.1719C46.154 69.6302 46.0595 70.0449 45.8705 70.4159C45.6815 70.787 45.4123 71.0816 45.0629 71.2999C44.7135 71.5181 44.2983 71.6273 43.8172 71.6273ZM52.8885 73.346V67.4367C52.8885 67.284 52.9429 67.1585 53.0517 67.0602C53.1606 66.962 53.2894 66.9129 53.4383 66.9129H55.4487V64.9977H53.026C52.247 64.9977 51.637 65.2078 51.196 65.6279C50.755 66.0481 50.5345 66.6292 50.5345 67.3713V73.346H52.8885ZM60.5509 73.5425C61.0549 73.5425 61.4902 73.4715 61.8567 73.3297C62.2233 73.1878 62.5355 72.9968 62.7932 72.7567C63.0509 72.5166 63.2657 72.2493 63.4375 71.9546H63.4719V73.346H65.8259V69.1882C65.8259 68.3807 65.6484 67.6441 65.2933 66.9784C64.9382 66.3127 64.4227 65.7834 63.7468 65.3906C63.071 64.9977 62.2405 64.8013 61.2554 64.8013C60.2817 64.8013 59.4454 64.995 58.7467 65.3824C58.0479 65.7698 57.5124 66.2963 57.1401 66.962C56.7678 67.6277 56.5817 68.3698 56.5817 69.1882C56.5817 69.9849 56.7449 70.7133 57.0714 71.3735C57.3979 72.0338 57.8589 72.5603 58.4546 72.9532C59.0502 73.346 59.749 73.5425 60.5509 73.5425ZM61.221 71.6273C60.7513 71.6273 60.3475 71.5181 60.0096 71.2999C59.6717 71.0816 59.4139 70.7842 59.2364 70.4077C59.0588 70.0313 58.9701 69.6138 58.9701 69.1555C58.9701 68.6972 59.0588 68.2852 59.2364 67.9196C59.4139 67.554 59.6717 67.2621 60.0096 67.0439C60.3475 66.8256 60.7513 66.7165 61.221 66.7165C61.6792 66.7165 62.0744 66.8256 62.4066 67.0439C62.7388 67.2621 62.9937 67.554 63.1712 67.9196C63.3488 68.2852 63.4375 68.6972 63.4375 69.1555C63.4375 69.6138 63.3488 70.0313 63.1712 70.4077C62.9937 70.7842 62.7388 71.0816 62.4066 71.2999C62.0744 71.5181 61.6792 71.6273 61.221 71.6273ZM73.7804 73.346V71.4308H71.8731C71.7242 71.4308 71.5953 71.379 71.4865 71.2753C71.3777 71.1716 71.3233 71.0489 71.3233 70.907L71.3231 66.9129H73.7804V64.9977L71.3231 64.998L71.3233 62.9025H68.9693L68.9691 64.998L67.4744 64.9977V66.9129H68.9691L68.9693 70.9725C68.9693 71.6671 69.1683 72.2238 69.5663 72.6426L69.6308 72.7076C70.0718 73.1332 70.6818 73.346 71.4607 73.346H73.7804ZM86.2721 73.346V71.4308H84.3649C84.216 71.4308 84.0871 71.379 83.9783 71.2753C83.8695 71.1716 83.815 71.0489 83.815 70.907L83.8149 66.9129H86.2721V64.9977L83.8149 64.998L83.815 62.9025H81.461L81.4609 64.998L79.9661 64.9977V66.9129H81.4609L81.461 70.9725C81.461 71.6671 81.66 72.2238 82.0581 72.6426L82.1226 72.7076C82.5636 73.1332 83.1736 73.346 83.9525 73.346H86.2721ZM94.9827 73.346V71.4308H92.5427C92.1189 71.4308 91.738 71.3735 91.4001 71.2589C91.0622 71.1444 90.7815 70.9725 90.5581 70.7433C90.3348 70.5141 90.1773 70.2304 90.0856 69.8921H96.0136C96.0365 69.8157 96.0537 69.7039 96.0652 69.5565C96.0766 69.4092 96.0823 69.281 96.0823 69.1719C96.0823 68.3643 95.9392 67.6304 95.6528 66.9702C95.3664 66.31 94.9168 65.7834 94.304 65.3906C93.6911 64.9977 92.8921 64.8013 91.907 64.8013C91.0822 64.8013 90.3434 64.9813 89.6904 65.3415C89.0375 65.7016 88.522 66.209 88.144 66.8638C87.766 67.5186 87.577 68.2879 87.577 69.1719C87.577 69.9576 87.7803 70.6669 88.1869 71.2999C88.5936 71.9328 89.1664 72.4321 89.9052 72.7977C90.6441 73.1632 91.5118 73.346 92.5084 73.346H94.9827ZM93.7283 68.3861H90.0684C90.1028 68.1679 90.1629 67.9551 90.2489 67.7477C90.3348 67.5404 90.4522 67.3549 90.6011 67.1912C90.75 67.0275 90.9361 66.8965 91.1595 66.7983C91.3829 66.7001 91.6378 66.651 91.9242 66.651C92.1418 66.651 92.3423 66.6783 92.5255 66.7329C92.7088 66.7874 92.8692 66.8638 93.0067 66.962C93.1441 67.0602 93.2644 67.1803 93.3675 67.3221C93.4706 67.464 93.5508 67.625 93.608 67.805C93.6653 67.9851 93.7054 68.1788 93.7283 68.3861ZM103.418 73.346V71.4308H102.319C101.837 71.4308 101.422 71.3326 101.073 71.1362C100.723 70.9397 100.454 70.6697 100.265 70.3259C100.076 69.9821 99.9817 69.5975 99.9817 69.1719C99.9817 68.7463 100.076 68.3616 100.265 68.0178C100.454 67.6741 100.723 67.404 101.073 67.2076C101.422 67.0111 101.837 66.9129 102.319 66.9129H103.418V64.9977H102.319C101.414 64.9977 100.606 65.1832 99.8958 65.5543C99.1856 65.9253 98.6243 66.4246 98.2119 67.0521C97.7995 67.6795 97.5933 68.3861 97.5933 69.1719C97.5933 69.9576 97.7995 70.6642 98.2119 71.2917C98.6243 71.9192 99.1856 72.4184 99.8958 72.7895C100.606 73.1605 101.414 73.346 102.319 73.346H103.418ZM107.764 73.346V68.4844C107.764 68.157 107.853 67.8596 108.031 67.5922C108.208 67.3249 108.443 67.1121 108.735 66.9538C109.027 66.7956 109.345 66.7165 109.689 66.7165C110.044 66.7165 110.368 66.7983 110.66 66.962C110.952 67.1257 111.184 67.3467 111.356 67.625C111.527 67.9033 111.613 68.2115 111.613 68.5498V73.346H113.967V68.5498C113.967 67.8623 113.83 67.2348 113.555 66.6674C113.28 66.0999 112.865 65.647 112.309 65.3087C111.754 64.9704 111.052 64.8013 110.204 64.8013C109.792 64.8013 109.374 64.8613 108.95 64.9813C108.526 65.1014 108.131 65.3033 107.764 65.587V61.3965H105.41V73.346H107.764Z" fill="#2C3240"/>
</g>
<path d="M38.3281 19.0412C38.3281 14.5495 41.9694 10.9082 46.4612 10.9082V51.2788C41.9694 51.2788 38.3281 47.6375 38.3281 43.1458V19.0412Z" fill="#12CEFE"/>
<path d="M76.3047 19.0412C76.3047 14.5495 72.6634 10.9082 68.1716 10.9082V51.2788C72.6634 51.2788 76.3047 47.6375 76.3047 43.1458V19.0412Z" fill="#12CEFE"/>
<path d="M44.923 0C40.4555 0 36.834 3.62155 36.834 8.08897L77.4246 8.08897C77.4246 3.62155 73.803 0 69.3356 0L44.923 0Z" fill="#12CEFE"/>
<path fill-rule="evenodd" clip-rule="evenodd" d="M56.0856 17.1017C56.0856 13.6814 53.3129 10.9087 49.8926 10.9087V45.0863C49.8926 45.6271 49.9619 46.1517 50.0921 46.6517C50.1856 47.1479 50.3307 47.6345 50.5259 48.1032C50.8953 48.99 51.4367 49.7959 52.1191 50.4746C52.8016 51.1534 53.6118 51.6918 54.5035 52.0592C55.3952 52.4265 56.3509 52.6156 57.3161 52.6156C58.2812 52.6156 59.2369 52.4265 60.1286 52.0592C61.0203 51.6918 61.8305 51.1534 62.513 50.4746C63.1955 49.7959 63.7368 48.99 64.1062 48.1032C64.4755 47.2163 64.6656 46.2658 64.6656 45.3058H64.6616C64.6641 45.233 64.6654 45.1598 64.6654 45.0863V10.9087C61.2451 10.9087 58.4723 13.6814 58.4723 17.1017V45.3058H57.3161H56.0856V17.1017Z" fill="#12CEFE"/>
<defs>
<clipPath id="clip0_556_11447">
<rect width="114" height="12.2769" fill="white" transform="translate(0 61.3843)"/>
</clipPath>
</defs>
</svg>
